<svg id="op_logo" xmlns="http://www.w3.org/2000/svg" viewBox="0 0 1200 600"><defs><style>.cls-1{fill:#231f20;}</style></defs><title>Other People Logo</title><path class="cls-1" d="M245.56,430.39q-70.8,0-108.18-44.2T100,272.52q0-69.48,37.38-113.68t108.18-44.2q70.35,0,108,44.2t37.6,113.68q0,69.48-37.6,113.67T245.56,430.39Zm-62.89-82.46q21.12,27.49,62.89,27.49t62.88-27.49q21.12-27.48,21.11-75.41T308.44,197.1q-21.1-27.48-62.88-27.49T182.67,197.1q-21.1,27.48-21.11,75.42T182.67,347.93Z"/><path class="cls-1" d="M531,426.43V118.6H662.89q46.17,0,73.88,28.14t27.7,72.12q0,44.87-27.92,73.45t-73.66,28.58H591.2V426.43ZM591.2,266.8h60.69q51,0,51-47.94,0-22.43-13.42-34.51t-37.6-12.1H591.2Z"/><path class="cls-1" d="M886.72,485.36V438.3H1100v47.06Z"/></svg>