<?xml version="1.0" standalone="no"?>
<!DOCTYPE svg PUBLIC "-//W3C//DTD SVG 20010904//EN"
 "http://www.w3.org/TR/2001/REC-SVG-20010904/DTD/svg10.dtd">
<svg version="1.0" xmlns="http://www.w3.org/2000/svg"
 width="1200.000000pt" height="1200.000000pt" viewBox="0 0 1200.000000 1200.000000"
 preserveAspectRatio="xMidYMid meet">
<metadata>
Created by potrace 1.14, written by Peter Selinger 2001-2017
</metadata>
<g transform="translate(0.000000,1200.000000) scale(0.100000,-0.100000)"
fill="#000000" stroke="none">
<path d="M4179 10195 c-2 -2 -47 -6 -100 -9 -53 -4 -105 -8 -116 -10 -11 -2
-45 -7 -75 -10 -64 -7 -271 -42 -360 -62 -15 -3 -30 -5 -33 -5 -2 0 -19 -5
-37 -10 -18 -6 -42 -12 -53 -14 -11 -3 -33 -8 -50 -11 -16 -3 -34 -9 -40 -12
-5 -4 -20 -8 -32 -9 -31 -5 -322 -102 -355 -119 -15 -8 -30 -14 -33 -14 -12
-1 -45 -14 -142 -56 -183 -80 -527 -262 -545 -288 -5 -7 -8 -7 -8 -1 0 6 -3 6
-8 0 -4 -6 -56 -44 -117 -84 -119 -80 -278 -199 -283 -213 -2 -4 -8 -8 -13 -8
-5 0 -17 -8 -27 -17 -10 -10 -47 -43 -83 -73 -128 -109 -465 -456 -493 -508
-5 -9 -12 -19 -15 -22 -4 -3 -25 -27 -46 -55 -53 -66 -50 -62 -95 -125 -22
-30 -43 -60 -47 -65 -4 -6 -26 -37 -47 -70 -22 -33 -52 -79 -68 -102 -15 -23
-28 -46 -28 -51 0 -6 -3 -12 -7 -14 -8 -3 -26 -32 -65 -108 -13 -25 -25 -47
-28 -50 -11 -11 -110 -216 -110 -227 0 -7 -4 -13 -10 -13 -5 0 -10 -5 -10 -11
0 -5 -11 -35 -25 -64 -13 -30 -27 -66 -31 -80 -3 -14 -11 -25 -17 -25 -6 0 -8
-3 -5 -6 4 -3 -1 -22 -9 -42 -17 -40 -81 -217 -88 -242 -33 -121 -57 -200 -65
-220 -5 -14 -12 -38 -14 -55 -2 -16 -6 -37 -9 -45 -7 -17 -30 -126 -33 -152
-1 -10 -2 -19 -4 -20 -2 -4 -7 -30 -14 -76 -3 -22 -8 -51 -10 -64 -5 -22 -9
-51 -22 -158 -2 -25 -7 -58 -9 -75 -23 -154 -23 -637 0 -845 8 -80 26 -214 31
-245 6 -32 12 -66 19 -105 10 -62 15 -85 41 -195 4 -16 9 -39 11 -50 8 -37 11
-50 13 -50 1 0 3 -7 5 -15 11 -44 16 -62 40 -145 14 -49 30 -98 35 -107 6 -10
10 -22 10 -27 0 -5 5 -22 11 -38 6 -15 10 -29 10 -30 0 -2 27 -69 60 -150 69
-168 180 -395 265 -540 50 -86 229 -360 244 -373 3 -3 27 -34 55 -70 64 -83
77 -99 95 -120 8 -9 39 -45 69 -81 30 -35 118 -127 195 -204 156 -156 212
-207 341 -310 28 -22 55 -44 62 -50 25 -21 39 -31 73 -55 19 -13 37 -27 40
-30 10 -11 245 -165 245 -160 1 3 20 -10 43 -28 23 -19 42 -30 42 -26 0 4 8 1
18 -7 21 -17 47 -32 132 -77 36 -19 79 -41 95 -50 17 -9 32 -17 35 -17 3 -1
46 -20 95 -44 50 -24 95 -44 100 -45 9 -2 24 -9 90 -37 227 -98 639 -210 935
-253 225 -33 343 -40 625 -40 285 -1 469 12 648 45 32 5 70 12 85 14 15 2 36
6 47 8 11 3 40 8 65 13 25 4 47 8 50 9 34 10 59 16 80 19 14 3 25 5 25 6 0 1
7 3 15 5 56 11 282 77 325 95 11 4 49 18 85 30 36 12 80 28 99 37 43 19 94 9
226 -47 27 -12 210 -71 232 -75 10 -2 18 -4 18 -5 0 -1 7 -3 15 -5 8 -2 42
-11 75 -20 85 -22 96 -25 130 -31 17 -3 48 -9 70 -15 64 -15 91 -20 245 -43
47 -7 185 -24 200 -25 8 0 51 -4 95 -8 169 -15 645 -8 790 13 22 3 56 7 75 9
19 2 46 6 60 9 14 3 45 8 70 11 25 2 56 7 70 10 14 3 39 8 55 11 52 9 193 42
295 69 36 9 70 18 75 19 12 2 203 64 225 73 8 3 20 7 25 8 22 6 172 66 195 79
14 8 27 14 30 14 22 1 300 136 405 197 33 19 69 39 80 44 57 26 443 291 465
320 3 3 29 24 58 46 28 21 52 43 52 47 0 4 4 8 9 8 13 0 100 80 256 235 120
120 180 185 267 290 18 23 39 47 46 55 29 33 157 210 200 275 25 39 49 72 54
73 4 2 8 8 8 13 0 5 16 34 36 65 55 86 184 324 184 340 0 8 4 14 8 14 8 0 36
60 33 73 0 4 4 7 11 7 6 0 9 3 6 6 -4 3 10 40 29 82 19 42 41 93 48 112 7 19
19 49 26 65 7 17 13 32 14 35 1 3 27 84 57 180 65 201 111 381 123 475 1 11 3
20 4 20 3 0 9 30 15 75 3 19 7 44 9 55 6 24 19 127 23 175 1 19 3 35 4 35 1 0
4 23 6 50 2 28 6 82 9 120 7 81 7 486 0 560 -17 187 -22 238 -30 290 -3 17 -7
46 -10 65 -2 19 -8 49 -11 65 -4 17 -7 39 -9 50 -1 11 -5 38 -10 60 -4 22 -9
47 -10 55 -2 8 -8 35 -15 60 -7 25 -14 54 -15 65 -1 11 -4 21 -5 23 -3 3 -5 8
-15 57 -11 49 -10 47 -17 65 -3 8 -13 42 -23 75 -9 33 -19 67 -22 75 -3 8 -7
20 -9 25 -3 12 -72 205 -81 225 -3 8 -7 17 -8 20 -1 3 -9 23 -19 45 -10 22
-27 64 -38 93 -10 28 -24 52 -30 52 -6 0 -9 3 -5 6 9 9 -154 325 -218 424
-133 205 -160 245 -167 248 -4 2 -8 10 -8 18 0 8 -3 14 -7 14 -5 0 -19 17 -33
37 -27 41 -31 47 -85 113 -126 156 -180 215 -320 355 -77 78 -169 165 -204
195 -36 30 -72 62 -81 70 -9 8 -45 37 -81 65 -35 27 -69 54 -76 60 -32 26 -39
31 -55 38 -10 3 -18 11 -18 17 0 5 -4 10 -10 10 -5 0 -47 26 -92 58 -78 54
-153 102 -223 142 -119 69 -158 90 -164 90 -4 0 -13 6 -20 13 -6 6 -15 12 -19
12 -4 1 -59 26 -122 57 -129 62 -155 74 -255 113 -38 15 -81 32 -95 38 -14 5
-31 11 -38 13 -7 1 -45 14 -85 28 -83 28 -230 73 -267 80 -14 3 -34 7 -45 10
-121 31 -185 45 -240 52 -22 3 -47 8 -55 11 -8 4 -18 6 -22 5 -4 -1 -29 2 -55
7 -26 5 -75 13 -108 17 -33 3 -73 8 -90 10 -162 19 -608 26 -777 11 -163 -14
-396 -45 -463 -61 -5 -2 -28 -6 -50 -11 -52 -10 -71 -14 -92 -19 -77 -19 -160
-38 -168 -40 -5 -1 -23 -6 -40 -12 -38 -15 -145 -47 -166 -51 -9 -1 -29 -8
-45 -14 -16 -7 -33 -13 -39 -15 -5 -1 -46 -16 -90 -33 -88 -34 -108 -37 -145
-18 -14 7 -45 19 -70 27 -25 7 -49 17 -55 21 -9 6 -160 54 -252 80 -18 5 -48
13 -65 19 -37 10 -190 46 -235 55 -15 3 -41 8 -58 11 -56 11 -130 23 -175 29
-19 2 -46 7 -59 9 -13 3 -58 8 -100 11 -42 4 -87 9 -101 12 -29 6 -596 14
-601 8z m183 -159 c9 8 300 1 405 -11 24 -2 71 -7 105 -10 61 -7 95 -11 148
-19 14 -3 43 -7 65 -10 22 -3 51 -8 65 -11 14 -3 36 -8 50 -10 128 -27 185
-40 270 -63 163 -45 195 -54 205 -60 6 -4 19 -8 30 -9 11 -2 24 -8 29 -13 6
-6 18 -10 28 -10 10 0 18 -4 18 -8 0 -9 -120 -66 -132 -64 -5 1 -8 -2 -8 -6 0
-5 -24 -19 -52 -33 -29 -13 -55 -26 -58 -29 -3 -3 -32 -21 -65 -39 -60 -34
-246 -151 -255 -161 -3 -3 -18 -14 -35 -24 -16 -10 -55 -37 -85 -60 -30 -22
-59 -44 -65 -48 -5 -5 -28 -24 -50 -43 -22 -19 -43 -35 -47 -35 -4 0 -20 -12
-36 -27 -16 -16 -51 -46 -78 -68 -80 -66 -354 -344 -434 -440 -40 -49 -79 -94
-85 -100 -5 -5 -35 -44 -65 -85 -30 -41 -58 -76 -62 -78 -5 -2 -8 -8 -8 -13 0
-6 -9 -20 -20 -32 -12 -12 -33 -42 -47 -67 -14 -25 -29 -47 -33 -50 -4 -3 -20
-27 -35 -55 -16 -27 -33 -51 -37 -53 -4 -2 -8 -8 -8 -13 0 -5 -14 -31 -30 -58
-65 -105 -220 -410 -235 -461 -1 -3 -9 -23 -19 -45 -35 -78 -138 -368 -151
-425 -2 -8 -15 -55 -28 -105 -14 -49 -27 -101 -30 -115 -3 -14 -12 -55 -20
-91 -8 -36 -18 -81 -21 -100 -3 -19 -8 -43 -10 -55 -2 -12 -7 -45 -11 -75 -4
-30 -8 -56 -10 -59 -1 -3 -6 -36 -10 -73 -3 -37 -8 -76 -10 -86 -8 -44 -18
-271 -18 -426 0 -176 14 -470 23 -470 1 0 3 -20 5 -45 1 -25 8 -76 15 -115 7
-38 14 -81 16 -95 6 -39 22 -120 34 -175 7 -27 12 -60 13 -72 1 -13 6 -23 11
-23 5 0 7 -3 4 -6 -5 -4 3 -41 26 -119 2 -5 6 -23 11 -40 4 -16 17 -59 28 -95
12 -36 22 -67 22 -70 2 -12 28 -86 34 -95 3 -5 6 -12 6 -15 6 -46 228 -545
255 -570 3 -3 15 -25 28 -50 23 -44 105 -182 129 -217 7 -10 50 -72 95 -138
45 -66 84 -122 87 -125 4 -3 41 -49 84 -103 43 -53 93 -114 112 -135 115 -125
135 -148 135 -154 0 -5 4 -8 8 -8 4 0 48 -39 98 -87 145 -142 351 -315 462
-388 23 -15 42 -32 42 -36 0 -5 6 -9 13 -9 7 0 23 -9 35 -20 12 -11 24 -20 27
-20 3 0 33 -18 65 -40 32 -22 64 -40 69 -40 6 0 11 -4 11 -8 0 -4 19 -18 43
-30 23 -12 69 -38 102 -57 33 -19 104 -56 157 -82 53 -27 97 -51 98 -54 0 -4
-39 -19 -87 -33 -49 -15 -98 -32 -111 -37 -35 -14 -298 -79 -321 -79 -12 0
-21 -3 -21 -7 0 -5 -12 -8 -27 -9 -16 0 -44 -4 -63 -7 -61 -12 -84 -16 -130
-22 -25 -3 -56 -8 -70 -10 -75 -13 -212 -25 -346 -30 -51 -2 -98 -6 -103 -10
-6 -3 -11 0 -12 7 0 10 -2 10 -6 1 -3 -9 -10 -10 -22 -4 -10 6 -33 6 -54 2
-20 -5 -38 -7 -41 -4 -2 2 -55 6 -118 8 -62 2 -138 6 -168 9 -30 4 -77 9 -105
12 -76 8 -165 20 -200 27 -11 3 -42 8 -68 11 -27 4 -56 9 -65 11 -10 3 -57 13
-107 24 -49 11 -115 27 -145 36 -30 9 -63 18 -74 20 -54 12 -322 104 -381 130
-16 7 -52 22 -80 33 -81 32 -272 125 -374 181 -51 29 -103 57 -115 64 -11 7
-23 14 -26 17 -3 3 -26 18 -51 33 -61 35 -259 171 -286 197 -12 11 -27 20 -32
20 -5 0 -16 8 -23 18 -7 9 -24 25 -38 34 -14 8 -36 26 -50 38 -14 12 -47 40
-74 63 -27 23 -72 63 -99 89 -28 26 -62 58 -76 71 -61 55 -230 241 -320 352
-248 306 -444 630 -588 975 -40 94 -55 130 -58 140 -1 3 -5 13 -9 22 -4 9 -9
22 -10 30 -3 14 -13 42 -26 73 -9 20 -55 171 -71 230 -11 43 -40 157 -44 175
-7 35 -34 167 -40 195 -3 17 -10 64 -16 105 -5 41 -12 89 -15 105 -6 33 -11
92 -20 230 -13 188 -6 602 11 685 3 14 7 43 9 65 4 36 9 77 21 160 2 17 6 41
9 55 10 46 26 125 31 155 11 71 108 413 125 445 5 9 11 28 14 41 4 21 15 50
61 164 5 11 9 22 10 25 12 36 75 172 106 233 11 20 17 37 12 37 -4 0 -3 4 3 8
6 4 26 36 44 72 36 69 138 247 151 265 5 5 37 53 71 105 73 112 178 251 281
373 47 55 255 277 261 277 1 0 30 26 63 58 71 67 98 91 178 157 33 28 62 53
63 58 2 4 8 7 13 7 10 0 24 10 57 41 9 8 39 31 67 50 27 19 56 40 63 47 7 6
17 12 22 12 5 0 15 6 22 13 27 26 179 121 303 189 108 60 415 208 431 208 3 0
20 6 37 14 18 8 61 25 97 37 36 12 70 26 75 30 6 3 26 10 45 15 42 9 41 9 60
16 23 9 123 40 140 43 8 2 53 13 99 25 81 20 120 29 226 50 74 14 117 22 145
25 14 2 41 6 60 8 89 14 234 26 358 32 46 2 86 6 89 9 4 3 11 1 18 -4 7 -5 14
-7 17 -4z m3261 1 c26 -1 47 1 47 6 0 4 5 5 10 2 6 -4 52 -8 103 -10 84 -4
173 -11 237 -20 14 -2 50 -6 81 -10 31 -3 67 -8 80 -10 13 -3 41 -7 64 -11 22
-3 58 -9 80 -14 22 -5 56 -12 75 -15 55 -10 266 -63 315 -79 24 -9 54 -18 67
-20 56 -13 229 -76 345 -127 24 -11 45 -19 47 -19 3 0 44 -19 93 -42 48 -23
90 -42 93 -43 3 0 16 -7 30 -14 38 -21 130 -71 177 -96 23 -13 54 -31 70 -41
48 -32 67 -44 93 -57 14 -6 34 -20 44 -29 11 -10 25 -18 32 -18 6 0 14 -7 18
-15 3 -8 10 -15 16 -15 13 0 163 -109 168 -122 2 -4 10 -8 18 -8 8 0 14 -4 14
-8 0 -4 12 -15 28 -25 15 -9 43 -31 63 -49 21 -18 67 -58 103 -88 75 -63 344
-333 396 -399 19 -24 41 -49 47 -56 54 -57 211 -270 291 -395 34 -52 65 -99
69 -105 4 -5 14 -21 20 -35 7 -14 33 -61 58 -105 54 -96 135 -260 135 -275 0
-5 5 -10 10 -10 6 0 10 -7 10 -15 0 -8 10 -36 21 -62 12 -27 25 -57 30 -68 4
-11 17 -42 28 -69 12 -27 23 -60 26 -73 2 -14 9 -31 16 -39 6 -8 9 -14 6 -14
-3 0 5 -28 19 -62 13 -34 22 -64 19 -66 -2 -3 0 -13 5 -22 12 -22 56 -182 76
-275 2 -11 6 -29 8 -40 3 -11 10 -45 15 -75 6 -30 13 -66 16 -80 3 -14 8 -43
10 -65 3 -22 7 -51 10 -65 9 -46 17 -122 31 -290 8 -97 9 -464 1 -555 -14
-164 -21 -228 -34 -310 -3 -22 -7 -49 -9 -60 -5 -34 -13 -79 -17 -95 -8 -33
-21 -115 -19 -122 1 -5 -3 -8 -9 -8 -5 0 -8 -4 -5 -9 3 -5 -6 -53 -20 -107
-14 -55 -27 -106 -29 -114 -5 -24 -105 -322 -120 -355 -7 -16 -30 -70 -50
-120 -57 -137 -165 -350 -251 -492 -69 -115 -198 -310 -214 -323 -3 -3 -22
-27 -41 -54 -18 -28 -41 -57 -49 -66 -36 -40 -70 -80 -70 -85 0 -2 -18 -24
-40 -47 -21 -24 -64 -70 -94 -103 -31 -33 -56 -63 -56 -67 0 -5 -4 -8 -8 -8
-4 0 -48 -39 -98 -87 -101 -99 -141 -136 -234 -211 -36 -29 -76 -62 -89 -73
-13 -11 -54 -41 -90 -67 -36 -26 -67 -50 -69 -54 -2 -5 -9 -8 -16 -8 -7 0 -20
-8 -29 -17 -9 -10 -33 -27 -54 -38 -21 -11 -40 -23 -43 -26 -3 -4 -52 -35
-110 -68 -58 -34 -112 -66 -120 -71 -39 -26 -403 -200 -418 -200 -4 0 -27 -9
-50 -20 -22 -11 -47 -20 -54 -20 -7 0 -30 -9 -51 -20 -20 -11 -37 -18 -37 -15
0 3 -24 -5 -52 -16 -29 -11 -55 -21 -58 -21 -3 0 -9 -2 -15 -4 -17 -6 -197
-56 -209 -58 -74 -16 -97 -21 -116 -28 -12 -5 -186 -37 -280 -52 -14 -3 -25
-5 -25 -6 0 0 -18 -3 -40 -5 -22 -1 -64 -6 -92 -9 -29 -3 -74 -8 -100 -11 -38
-4 -292 -17 -338 -17 -44 0 -318 13 -350 16 -22 3 -67 7 -100 10 -33 4 -76 9
-95 12 -19 2 -48 7 -65 9 -41 6 -145 24 -175 30 -14 4 -36 8 -50 11 -19 3 -91
20 -130 29 -3 1 -18 5 -35 9 -136 33 -367 108 -358 117 4 4 60 34 123 67 165
85 451 259 507 307 6 5 36 28 67 50 31 22 56 43 56 47 0 4 6 8 14 8 8 0 16 3
18 8 2 4 23 23 48 42 25 19 50 39 56 45 6 5 35 30 65 55 29 25 117 108 194
185 178 177 275 286 399 450 25 33 49 65 53 70 5 6 21 30 38 55 16 25 33 47
36 50 3 3 8 10 10 15 2 6 29 48 60 95 60 91 94 148 131 220 13 25 25 47 28 50
7 6 111 218 110 225 0 3 12 25 25 50 14 25 25 46 25 47 -1 2 3 14 9 28 5 14
25 64 44 112 19 48 32 89 29 92 -3 4 0 6 6 6 7 0 11 3 10 8 -1 4 11 45 26 92
41 125 78 255 92 320 2 14 13 61 24 105 10 44 22 98 25 120 3 22 8 54 11 70
17 94 33 211 39 280 25 310 25 573 0 860 -3 28 -7 59 -9 71 -2 11 -7 47 -10
80 -4 32 -10 70 -13 84 -4 13 -7 36 -9 50 -1 14 -3 25 -4 25 -1 0 -4 14 -6 30
-2 17 -9 50 -14 75 -6 25 -13 55 -15 68 -3 12 -8 32 -11 45 -3 12 -7 31 -9 42
-4 19 -10 42 -34 128 -33 116 -93 297 -117 354 -8 17 -14 34 -14 38 0 3 -12
32 -26 63 -15 31 -27 62 -29 67 -7 30 -125 272 -185 380 -18 33 -38 69 -44 80
-6 11 -14 22 -17 25 -3 3 -20 30 -37 60 -44 75 -56 94 -62 100 -10 10 -50 69
-50 74 0 3 -7 14 -15 23 -8 10 -37 50 -65 88 -191 262 -454 541 -720 762 -208
173 -547 393 -777 504 -51 24 -92 47 -92 50 -1 11 376 126 444 135 11 1 20 3
20 4 0 2 10 4 60 14 17 3 62 12 100 19 39 8 77 15 85 15 8 0 24 2 35 5 11 2
47 8 80 12 32 4 68 9 78 11 38 7 214 17 319 18 60 1 108 4 108 8 0 4 6 5 13 3
6 -3 33 -6 60 -8z"/>
</g>
</svg>
