<svg width="1285" height="1259" viewBox="0 0 1285 1259" fill="none" xmlns="http://www.w3.org/2000/svg">
<g id="Group 4">
<g id="Linked Path Group">
<path id="[Copy] OTHER PEOPLE... OTHER PEOPLE..." d="M863.823 959.075C861.826 955.043 859.425 951.322 856.62 947.913C853.77 944.638 850.559 941.987 846.989 939.961C843.419 937.936 839.51 936.803 835.262 936.564C831.059 936.414 826.583 937.516 821.834 939.868C817.084 942.221 813.496 945.115 811.068 948.549C808.685 952.073 807.218 955.869 806.666 959.937C806.114 964.005 806.322 968.142 807.291 972.35C808.214 976.691 809.674 980.878 811.672 984.91C813.758 989.122 816.271 992.955 819.209 996.409C822.059 999.908 825.268 1002.67 828.839 1004.7C832.453 1006.81 836.362 1007.94 840.566 1008.09C844.813 1008.33 849.312 1007.28 854.061 1004.92C858.81 1002.57 862.376 999.632 864.76 996.108C867.187 992.674 868.655 988.878 869.162 984.72C869.714 980.653 869.506 976.404 868.538 971.972C867.481 967.586 865.91 963.287 863.823 959.075ZM884.926 948.621C888.477 955.79 890.687 962.954 891.555 970.112C892.467 977.361 892.039 984.268 890.27 990.836C888.502 997.404 885.349 1003.43 880.812 1008.91C876.185 1014.44 870.198 1019.03 862.85 1022.67C855.413 1026.35 848.138 1028.34 841.026 1028.62C833.914 1028.91 827.21 1027.77 820.914 1025.19C814.618 1022.62 808.863 1018.78 803.65 1013.66C798.48 1008.63 794.12 1002.53 790.569 995.364C787.107 988.375 784.941 981.301 784.074 974.142C783.25 967.073 783.745 960.299 785.557 953.821C787.37 947.344 790.545 941.363 795.082 935.879C799.664 930.484 805.674 925.945 813.111 922.26C820.459 918.62 827.711 916.59 834.868 916.169C841.98 915.883 848.662 916.981 854.914 919.464C861.166 921.946 866.854 925.657 871.979 930.595C877.148 935.623 881.463 941.632 884.926 948.621Z" fill="#303030"/>
<path id="[Copy] OTHER PEOPLE... OTHER PEOPLE..._2" d="M758.068 1036.47L789.547 1030.19L793.422 1049.61L707.37 1066.78L703.494 1047.36L734.973 1041.08L717.885 955.47L740.979 950.86L758.068 1036.47Z" fill="#303030"/>
<path id="[Copy] OTHER PEOPLE... OTHER PEOPLE..._3" d="M682.238 1068.69L658.711 1067.64L660.538 1026.58L617.231 1024.65L615.404 1065.71L591.877 1064.67L596.637 957.674L620.163 958.72L618.11 1004.87L661.418 1006.8L663.471 960.646L686.997 961.693L682.238 1068.69Z" fill="#303030"/>
<path id="[Copy] OTHER PEOPLE... OTHER PEOPLE..._4" d="M558.198 1058.02L481.417 1035.2L487.057 1016.22L541.264 1032.33L547.802 1010.33L498.052 995.55L503.265 978.009L553.015 992.793L560.493 967.631L505.136 951.18L510.776 932.2L588.707 955.36L558.198 1058.02Z" fill="#303030"/>
<path id="[Copy] OTHER PEOPLE... OTHER PEOPLE..._5" d="M457.52 969.714L435.237 956.71C430.573 953.988 426.47 952.983 422.929 953.695C419.387 954.407 416.255 957.095 413.533 961.759C410.913 966.25 410.188 970.169 411.361 973.516C412.483 976.95 415.376 980.028 420.04 982.75L442.323 995.754L457.52 969.714ZM453.439 1023.43L403.561 994.321C399.416 991.902 396.105 989.044 393.63 985.746C391.017 982.485 389.226 979.008 388.255 975.315C387.197 971.572 386.971 967.793 387.577 963.978C388.045 960.199 389.313 956.539 391.379 952.998C394.555 947.557 398.468 943.53 403.118 940.918C407.682 938.256 413.16 937.4 419.552 938.351L419.703 938.092C417.602 935.94 416.159 933.65 415.375 931.224C414.54 928.885 414.185 926.419 414.307 923.828C414.38 921.323 414.881 918.779 415.81 916.195C416.652 913.56 417.668 911.027 418.856 908.594C419.626 907.075 420.548 905.298 421.621 903.261C422.694 901.224 423.749 899.119 424.786 896.945C425.736 894.721 426.55 892.533 427.227 890.381C427.768 888.265 427.941 886.282 427.747 884.432L448.086 896.302C447.496 899.893 446.145 903.795 444.035 908.005C441.925 912.216 440.046 916.329 438.397 920.345C436.265 925.585 435.667 929.983 436.602 933.539C437.537 937.095 440.552 940.36 445.648 943.334L465.988 955.204L487.082 919.059L507.421 930.929L453.439 1023.43Z" fill="#303030"/>
<path id="[Copy] OTHER PEOPLE... OTHER PEOPLE..._6" d="M339.578 876.057L327.822 862.032C326.088 859.963 324.265 858.099 322.352 856.44C320.44 854.781 318.452 853.576 316.388 852.827C314.248 852.142 312.02 852.052 309.704 852.558C307.323 852.987 304.83 854.294 302.225 856.478C299.619 858.662 297.897 860.889 297.058 863.157C296.155 865.349 295.893 867.527 296.27 869.689C296.571 871.916 297.371 874.116 298.671 876.289C299.97 878.462 301.487 880.583 303.221 882.652L314.977 896.677L339.578 876.057ZM316.08 926.481L285.053 889.465C280.749 884.33 277.854 879.319 276.368 874.432C274.805 869.61 274.318 865.06 274.907 860.781C275.433 856.427 276.849 852.434 279.156 848.804C281.399 845.097 284.206 841.831 287.578 839.004C290.874 836.242 294.581 834.049 298.699 832.423C302.676 830.786 306.855 830.089 311.234 830.333C315.549 830.5 319.983 831.742 324.535 834.059C329.01 836.44 333.4 840.199 337.704 845.333L353.603 864.301L383.032 839.634L398.16 857.682L316.08 926.481Z" fill="#303030"/>
<path id="[Copy] OTHER PEOPLE... OTHER PEOPLE..._7" d="M245.73 835.623L210.73 763.574L228.54 754.923L253.25 805.789L273.893 795.761L251.215 749.077L267.676 741.081L290.354 787.764L313.965 776.294L288.731 724.349L306.541 715.698L342.065 788.826L245.73 835.623Z" fill="#303030"/>
<path id="[Copy] OTHER PEOPLE... OTHER PEOPLE..._8" d="M249.936 705.314C254.368 704.533 258.615 703.277 262.676 701.545C266.621 699.733 270.068 697.399 273.017 694.544C275.966 691.689 278.154 688.257 279.58 684.249C280.907 680.258 281.111 675.652 280.191 670.433C279.271 665.213 277.505 660.955 274.893 657.658C272.182 654.379 268.953 651.902 265.206 650.227C261.458 648.552 257.429 647.587 253.12 647.331C248.694 646.994 244.265 647.217 239.834 647.998C235.205 648.814 230.82 650.145 226.677 651.992C222.518 653.741 218.963 656.043 216.014 658.898C212.967 661.771 210.779 665.202 209.452 669.193C208.026 673.202 207.773 677.816 208.693 683.035C209.613 688.255 211.428 692.504 214.139 695.783C216.75 699.08 219.979 701.557 223.826 703.215C227.573 704.89 231.709 705.887 236.233 706.206C240.74 706.427 245.308 706.13 249.936 705.314ZM254.024 728.507C246.146 729.895 238.65 729.998 231.537 728.815C224.325 727.649 217.817 725.293 212.013 721.747C206.209 718.2 201.315 713.478 197.331 707.58C193.33 701.584 190.617 694.548 189.194 686.472C187.753 678.298 187.896 670.759 189.624 663.854C191.351 656.949 194.336 650.839 198.577 645.522C202.819 640.205 208.129 635.766 214.508 632.204C220.788 628.66 227.867 626.194 235.746 624.805C243.427 623.451 250.825 623.366 257.938 624.549C264.953 625.749 271.313 628.132 277.018 631.695C282.723 635.259 287.568 639.99 291.553 645.888C295.438 651.803 298.102 658.848 299.542 667.022C300.966 675.097 300.872 682.628 299.26 689.614C297.532 696.518 294.597 702.621 290.454 707.92C286.311 713.22 281.149 717.633 274.967 721.16C268.687 724.704 261.706 727.153 254.024 728.507Z" fill="#303030"/>
<path id="[Copy] OTHER PEOPLE... OTHER PEOPLE..._9" d="M236.388 584.906L238.567 566.736C238.888 564.055 238.999 561.45 238.9 558.92C238.8 556.39 238.318 554.117 237.452 552.099C236.487 550.07 235.027 548.384 233.073 547.042C231.131 545.6 228.472 544.677 225.096 544.272C221.72 543.868 218.918 544.136 216.69 545.077C214.474 545.919 212.707 547.218 211.389 548.974C209.971 550.717 208.915 552.806 208.22 555.241C207.525 557.676 207.017 560.233 206.695 562.914L204.516 581.084L236.388 584.906ZM183.543 602.288L189.293 554.331C190.091 547.679 191.763 542.138 194.308 537.71C196.754 533.27 199.739 529.8 203.261 527.302C206.796 524.704 210.676 523.004 214.901 522.202C219.139 521.3 223.442 521.111 227.811 521.635C232.08 522.147 236.216 523.348 240.22 525.238C244.136 527.017 247.504 529.586 250.324 532.946C253.156 536.206 255.285 540.289 256.711 545.193C258.038 550.086 258.303 555.859 257.505 562.511L254.558 587.085L292.685 591.657L289.881 615.04L183.543 602.288Z" fill="#303030"/>
<path id="[Copy] OTHER PEOPLE... OTHER PEOPLE..._10" d="M202.067 490.387L210.769 468.504L291.891 500.76L311.178 452.254L329.577 459.57L301.588 529.959L202.067 490.387Z" fill="#303030"/>
<path id="[Copy] OTHER PEOPLE... OTHER PEOPLE..._11" d="M243.644 396.383L291.411 332.085L307.305 343.893L273.582 389.287L292.004 402.973L322.955 361.312L337.645 372.225L306.694 413.886L327.766 429.54L362.205 383.183L378.099 394.991L329.616 460.252L243.644 396.383Z" fill="#303030"/>
<path id="[Copy] OTHER PEOPLE... OTHER PEOPLE..._12" d="M440.331 242.134C435.13 244.466 431.083 247.54 428.191 251.357C425.391 255.133 423.602 259.332 422.825 263.954C422.007 268.485 422.007 273.252 422.825 278.255C423.734 283.217 425.232 288.025 427.318 292.679C429.404 297.333 431.997 301.65 435.097 305.63C438.287 309.57 441.867 312.787 445.834 315.283C449.761 317.687 454.066 319.099 458.748 319.521C463.521 319.902 468.509 318.926 473.71 316.595C478.911 314.263 482.912 311.209 485.713 307.433C488.604 303.617 490.459 299.443 491.277 294.912C492.055 290.289 491.988 285.497 491.079 280.535C490.261 275.532 488.809 270.703 486.723 266.05C484.636 261.396 481.998 257.099 478.807 253.16C475.708 249.179 472.195 245.987 468.268 243.583C464.3 241.088 459.929 239.65 455.156 239.269C450.474 238.847 445.532 239.802 440.331 242.134ZM434.072 228.173C441.372 224.9 448.51 223.344 455.486 223.505C462.554 223.624 469.138 225.111 475.239 227.965C481.34 230.819 486.831 234.878 491.711 240.142C496.683 245.365 500.723 251.445 503.832 258.38C506.982 265.406 508.853 272.513 509.444 279.699C510.127 286.845 509.504 293.645 507.575 300.099C505.646 306.552 502.375 312.457 497.762 317.812C493.2 323.036 487.269 327.284 479.969 330.556C472.668 333.829 465.505 335.451 458.479 335.422C451.503 335.262 444.964 333.755 438.863 330.901C432.762 328.047 427.225 324.008 422.254 318.785C417.374 313.521 413.358 307.375 410.209 300.349C407.1 293.414 405.204 286.373 404.521 279.228C403.93 272.041 404.598 265.22 406.527 258.767C408.456 252.313 411.681 246.429 416.203 241.114C420.816 235.759 426.772 231.445 434.072 228.173Z" fill="#303030"/>
<path id="[Copy] OTHER PEOPLE... OTHER PEOPLE..._13" d="M540.401 217.731L508.715 222.869L505.546 203.324L592.165 189.279L595.334 208.824L563.648 213.962L577.62 300.136L554.374 303.905L540.401 217.731Z" fill="#303030"/>
<path id="[Copy] OTHER PEOPLE... OTHER PEOPLE..._14" d="M615.385 188.07L638.862 189.932L635.613 230.903L678.827 234.33L682.076 193.359L705.552 195.22L697.086 301.985L673.61 300.124L677.262 254.068L634.047 250.641L630.395 296.697L606.919 294.835L615.385 188.07Z" fill="#303030"/>
<path id="[Copy] OTHER PEOPLE... OTHER PEOPLE..._15" d="M740.754 203.071L816.706 228.514L810.416 247.288L756.795 229.326L749.505 251.088L798.718 267.573L792.905 284.925L743.693 268.44L735.355 293.331L790.114 311.674L783.825 330.449L706.735 304.625L740.754 203.071Z" fill="#303030"/>
<path id="[Copy] OTHER PEOPLE... OTHER PEOPLE..._16" d="M836.684 293.723L858.543 307.429C863.118 310.298 867.187 311.433 870.749 310.834C874.311 310.235 877.527 307.648 880.396 303.073C883.158 298.667 884.007 294.773 882.941 291.39C881.928 287.922 879.135 284.754 874.56 281.886L852.701 268.18L836.684 293.723ZM842.471 240.165L891.398 270.844C895.465 273.394 898.683 276.356 901.052 279.73C903.56 283.073 905.24 286.605 906.093 290.327C907.031 294.102 907.137 297.886 906.41 301.68C905.822 305.442 904.438 309.06 902.26 312.534C898.913 317.871 894.874 321.771 890.143 324.234C885.497 326.75 879.994 327.431 873.636 326.277L873.477 326.531C875.509 328.75 876.878 331.084 877.585 333.533C878.344 335.898 878.622 338.374 878.416 340.96C878.264 343.461 877.683 345.988 876.672 348.541C875.746 351.148 874.651 353.648 873.386 356.041C872.567 357.535 871.59 359.282 870.452 361.284C869.315 363.286 868.194 365.356 867.088 367.496C866.068 369.689 865.185 371.85 864.44 373.979C863.832 376.077 863.596 378.054 863.731 379.909L843.779 367.398C844.484 363.827 845.958 359.971 848.2 355.83C850.443 351.688 852.452 347.637 854.228 343.675C856.526 338.506 857.263 334.129 856.442 330.545C855.62 326.961 852.71 323.602 847.712 320.467L827.76 307.957L805.527 343.413L785.575 330.902L842.471 240.165Z" fill="#303030"/>
<path id="[Copy] OTHER PEOPLE... OTHER PEOPLE..._17" d="M952.954 392.202L964.176 406.657C965.832 408.789 967.584 410.721 969.433 412.45C971.282 414.179 973.224 415.457 975.258 416.284C977.371 417.048 979.594 417.221 981.927 416.803C984.322 416.463 986.862 415.25 989.548 413.165C992.233 411.08 994.038 408.92 994.961 406.684C995.945 404.527 996.289 402.361 995.992 400.186C995.775 397.949 995.058 395.721 993.841 393.501C992.624 391.281 991.187 389.104 989.531 386.972L978.309 372.517L952.954 392.202ZM978.323 342.692L1007.94 380.844C1012.05 386.137 1014.76 391.252 1016.06 396.191C1017.44 401.069 1017.76 405.634 1017.01 409.887C1016.32 414.219 1014.75 418.156 1012.31 421.697C1009.93 425.317 1007.01 428.477 1003.53 431.175C1000.13 433.812 996.347 435.865 992.171 437.335C988.135 438.822 983.933 439.362 979.566 438.955C975.26 438.627 970.876 437.219 966.414 434.733C962.031 432.186 957.785 428.266 953.676 422.974L938.498 403.424L908.166 426.972L893.725 408.37L978.323 342.692Z" fill="#303030"/>
<path id="[Copy] OTHER PEOPLE... OTHER PEOPLE..._18" d="M1045.15 435.388L1077.39 508.714L1059.27 516.683L1036.51 464.915L1015.5 474.151L1036.38 521.663L1019.63 529.028L998.745 481.516L974.715 492.081L997.956 544.947L979.831 552.916L947.111 478.491L1045.15 435.388Z" fill="#303030"/>
<path id="[Copy] OTHER PEOPLE... OTHER PEOPLE..._19" d="M1081.1 588.752C1080.34 583.102 1078.55 578.347 1075.71 574.488C1072.89 570.728 1069.37 567.818 1065.17 565.756C1061.05 563.681 1056.49 562.323 1051.46 561.683C1046.44 561.141 1041.41 561.207 1036.35 561.882C1031.29 562.556 1026.42 563.812 1021.72 565.649C1017.03 567.585 1012.93 570.1 1009.41 573.193C1005.99 576.272 1003.41 579.996 1001.67 584.364C999.943 588.831 999.458 593.89 1000.21 599.54C1000.97 605.19 1002.75 609.895 1005.57 613.655C1008.41 617.514 1011.88 620.481 1015.99 622.556C1020.2 624.617 1024.81 625.919 1029.83 626.46C1034.86 627.101 1039.9 627.084 1044.96 626.41C1050.01 625.736 1054.88 624.431 1059.57 622.494C1064.27 620.657 1068.33 618.198 1071.75 615.119C1075.27 612.026 1077.89 608.246 1079.62 603.779C1081.36 599.411 1081.85 594.402 1081.1 588.752ZM1096.26 586.729C1097.32 594.659 1096.78 601.944 1094.64 608.586C1092.51 615.326 1089.21 621.214 1084.73 626.25C1080.26 631.285 1074.81 635.393 1068.37 638.571C1061.95 641.849 1054.97 643.991 1047.44 644.996C1039.8 646.014 1032.46 645.783 1025.4 644.303C1018.36 642.922 1012.02 640.388 1006.38 636.701C1000.74 633.014 996.013 628.197 992.193 622.249C988.486 616.388 986.103 609.492 985.046 601.563C983.988 593.633 984.474 586.304 986.502 579.577C988.643 572.936 991.95 567.097 996.423 562.062C1000.9 557.026 1006.35 552.869 1012.77 549.591C1019.2 546.413 1026.24 544.314 1033.87 543.296C1041.4 542.291 1048.69 542.479 1055.74 543.86C1062.8 545.34 1069.14 547.924 1074.78 551.611C1080.42 555.298 1085.14 560.065 1088.94 565.914C1092.76 571.861 1095.2 578.799 1096.26 586.729Z" fill="#303030"/>
<path id="[Copy] OTHER PEOPLE... OTHER PEOPLE..._20" d="M1045.35 686.138L1042.48 704.211C1042.05 706.877 1041.84 709.477 1041.85 712.008C1041.85 714.54 1042.24 716.831 1043.03 718.88C1043.92 720.945 1045.31 722.685 1047.21 724.102C1049.1 725.616 1051.72 726.641 1055.08 727.175C1058.44 727.709 1061.25 727.549 1063.51 726.693C1065.75 725.937 1067.57 724.707 1068.95 723.003C1070.44 721.315 1071.57 719.268 1072.36 716.862C1073.15 714.456 1073.76 711.92 1074.18 709.253L1077.05 691.18L1045.35 686.138ZM1098.83 670.797L1091.24 718.498C1090.19 725.115 1088.3 730.587 1085.59 734.914C1082.98 739.257 1079.86 742.61 1076.24 744.971C1072.61 747.431 1068.67 748.981 1064.42 749.621C1060.15 750.359 1055.84 750.383 1051.5 749.692C1047.25 749.017 1043.16 747.658 1039.23 745.615C1035.39 743.687 1032.12 740.991 1029.43 737.525C1026.73 734.159 1024.76 729.997 1023.52 725.042C1022.38 720.102 1022.34 714.323 1023.39 707.706L1027.28 683.263L989.357 677.232L993.056 653.974L1098.83 670.797Z" fill="#303030"/>
<path id="[Copy] OTHER PEOPLE... OTHER PEOPLE..._21" d="M1075.37 783.972L1065.73 805.461L986.072 769.744L964.715 817.375L946.648 809.274L977.64 740.154L1075.37 783.972Z" fill="#303030"/>
<path id="[Copy] OTHER PEOPLE... OTHER PEOPLE..._22" d="M1030.2 875.384L979.906 937.728L964.495 925.296L1000 881.282L982.138 866.872L949.552 907.267L935.309 895.777L967.895 855.382L947.464 838.901L911.205 883.849L895.794 871.418L946.839 808.14L1030.2 875.384Z" fill="#303030"/>
</g>
<path id="O" d="M1120.14 578.744C1119.02 573.155 1116.91 568.528 1113.83 564.863C1110.77 561.295 1107.07 558.62 1102.74 556.838C1098.5 555.036 1093.85 553.98 1088.79 553.669C1083.75 553.457 1078.73 553.852 1073.73 554.855C1068.73 555.858 1063.95 557.43 1059.38 559.57C1054.83 561.808 1050.9 564.586 1047.59 567.902C1044.37 571.199 1042.04 575.083 1040.59 579.556C1039.16 584.126 1039.01 589.205 1040.13 594.794C1041.25 600.383 1043.34 604.961 1046.4 608.528C1049.49 612.194 1053.15 614.928 1057.38 616.729C1061.72 618.511 1066.41 619.509 1071.45 619.722C1076.51 620.032 1081.54 619.686 1086.54 618.683C1091.54 617.68 1096.31 616.059 1100.86 613.821C1105.43 611.68 1109.32 608.962 1112.53 605.665C1115.85 602.349 1118.22 598.406 1119.65 593.835C1121.09 589.363 1121.26 584.333 1120.14 578.744ZM1135.14 575.735C1136.71 583.578 1136.65 590.884 1134.95 597.651C1133.26 604.516 1130.35 610.607 1126.22 615.924C1122.08 621.241 1116.91 625.696 1110.69 629.289C1104.5 632.979 1097.68 635.572 1090.22 637.067C1082.67 638.581 1075.33 638.831 1068.19 637.815C1061.07 636.898 1054.58 634.783 1048.71 631.473C1042.85 628.162 1037.81 623.664 1033.61 617.979C1029.53 612.372 1026.7 605.647 1025.13 597.803C1023.56 589.96 1023.56 582.615 1025.15 575.77C1026.85 569.003 1029.77 562.961 1033.9 557.644C1038.04 552.326 1043.2 547.822 1049.4 544.132C1055.61 540.539 1062.49 537.986 1070.04 536.471C1077.5 534.976 1084.78 534.688 1091.9 535.605C1099.04 536.621 1105.54 538.784 1111.41 542.095C1117.27 545.406 1122.3 549.855 1126.48 555.442C1130.68 561.126 1133.56 567.891 1135.14 575.735Z" fill="#303030"/>
<path id="O_2" d="M457.72 285.449C462.618 282.532 466.282 279.011 468.714 274.886C471.059 270.812 472.351 266.434 472.59 261.753C472.879 257.158 472.328 252.423 470.938 247.548C469.462 242.724 467.419 238.121 464.809 233.739C462.2 229.357 459.126 225.368 455.587 221.773C451.963 218.228 448.036 215.445 443.807 213.425C439.629 211.49 435.19 210.584 430.49 210.706C425.705 210.879 420.863 212.424 415.966 215.341C411.069 218.257 407.447 221.753 405.102 225.827C402.67 229.952 401.31 234.312 401.02 238.907C400.782 243.588 401.401 248.341 402.877 253.165C404.268 258.04 406.268 262.669 408.877 267.05C411.487 271.432 414.604 275.395 418.228 278.94C421.766 282.536 425.625 285.301 429.803 287.235C434.032 289.256 438.54 290.179 443.325 290.006C448.025 289.885 452.823 288.365 457.72 285.449ZM465.549 298.594C458.676 302.688 451.765 305.057 444.818 305.704C437.784 306.401 431.072 305.684 424.682 303.554C418.292 301.424 412.369 298.026 406.914 293.36C401.372 288.746 396.657 283.174 392.768 276.645C388.828 270.029 386.149 263.186 384.732 256.116C383.228 249.096 383.062 242.27 384.233 235.637C385.403 229.004 387.97 222.761 391.934 216.909C395.863 211.193 401.264 206.289 408.137 202.195C415.011 198.102 421.939 195.663 428.921 194.88C435.869 194.234 442.538 194.976 448.928 197.106C455.318 199.237 461.284 202.609 466.825 207.223C472.281 211.889 476.979 217.529 480.919 224.145C484.807 230.674 487.504 237.449 489.007 244.468C490.425 251.539 490.548 258.39 489.377 265.024C488.207 271.657 485.682 277.874 481.805 283.675C477.841 289.527 472.423 294.5 465.549 298.594Z" fill="#303030"/>
<path id="Vector 2" d="M1064.42 608.906C1066.16 609.544 1068.2 610.372 1070.03 610.755C1073.42 611.465 1070.83 599.743 1070.67 598.841C1069.13 590.583 1066.83 580.931 1062.2 573.419C1058.94 568.115 1054.43 571.689 1053.94 576.141C1052.74 587.047 1057.75 599.845 1062.95 609.655C1063.74 611.126 1070.75 622.192 1074.03 616.843C1075.9 613.798 1075.09 609.549 1074.35 606.376C1072.88 600.066 1070.21 593.906 1067.6 587.884C1065.03 581.954 1061.78 570.4 1053.83 567.332C1051.95 566.606 1053.13 570.283 1053.18 570.499C1054.38 576.245 1056.51 581.884 1058.54 587.449C1061.84 596.46 1065.48 605.374 1069.11 614.293C1070.83 618.527 1072.23 623.2 1074.73 627.189C1079.14 634.222 1078.9 621.209 1078.69 619.527C1077.07 606.12 1073.06 592.861 1067.73 580.184C1067.29 579.145 1062.88 569.985 1060.41 574.822C1058.81 577.97 1059.65 582.456 1060.12 585.694C1061.22 593.319 1063.76 600.732 1066.59 608.011C1068.14 612.011 1072.27 624.053 1071.72 619.871C1071.16 615.581 1069.35 611.166 1068.03 607.033C1064.81 596.995 1061.13 587.083 1057.16 577.239C1055.64 573.457 1054.26 569.569 1052.41 565.888C1052.15 565.371 1050.44 562.348 1050.82 565.052C1052.48 576.628 1057.94 588.493 1062.45 599.457C1063.99 603.197 1065.63 606.933 1068.11 610.309C1068.14 610.349 1070.98 613.283 1070.97 613.075C1070.74 609.194 1067.95 604.365 1066.6 600.787C1062.55 590.059 1058.65 579.305 1054.83 568.515C1053.59 565.013 1052.43 561.491 1051.18 557.994C1050.91 557.237 1050.62 556.525 1050.85 557.089C1051.48 558.644 1052.11 560.199 1052.74 561.754C1059.53 578.454 1065.06 595.442 1070.96 612.37C1071.34 613.442 1075.03 622.821 1072.64 616.834C1068.14 605.574 1064.63 594.064 1060.06 582.823C1056.14 573.189 1073.69 621.893 1070.81 612.001C1069.15 606.275 1067.17 600.491 1064.97 594.896C1064.79 594.455 1064.25 593.138 1064.43 593.578C1066.61 598.946 1068.8 604.315 1070.98 609.683C1072.94 614.509 1078.27 629.143 1076.3 624.316C1075.4 622.085 1073.95 615.284 1073.58 617.621C1073.32 619.327 1074.48 621.577 1074.78 623.287C1074.98 624.476 1074.73 623.538 1074.48 622.901C1073.34 619.977 1072.62 617.019 1072.17 613.966C1070.05 599.806 1067.72 586.317 1062.2 572.741C1058.82 564.415 1068.19 589.613 1070.67 598.163C1073.59 608.232 1076.35 618.331 1079.35 628.384C1079.45 628.739 1081.14 634.017 1079.5 632.171C1075.11 627.244 1072.06 621.43 1068.84 615.934C1067.64 613.885 1066.16 608.912 1063.65 607.686C1062.78 607.262 1063.98 609.37 1064.31 610.175C1065.56 613.244 1066.7 616.371 1068.19 619.365C1068.56 620.111 1072.87 627.249 1070.83 623.488C1067.5 617.313 1062.95 611.511 1059.04 605.575C1056.01 600.964 1060.85 608.803 1061.28 609.463C1064.32 614.076 1072.92 628.102 1070.58 623.208C1066.94 615.598 1059.94 608.675 1054.78 601.744C1053.31 599.78 1051.89 597.795 1050.49 595.798C1049.74 594.728 1051.32 598.189 1051.86 599.348C1054.53 605.124 1057.78 610.71 1060.58 616.444C1060.85 616.997 1061.39 617.983 1060.62 616.638C1058.75 613.331 1056.09 610.338 1053.87 607.193C1052.27 604.929 1050.9 602.477 1049.07 600.335C1048.36 599.508 1048.01 599.438 1048.58 600.656C1051.53 607.048 1056.77 612.539 1060.58 618.567C1061.06 619.332 1061.93 620.531 1062.02 621.448C1062.19 623.059 1060.18 618.595 1059.02 617.309C1056.46 614.465 1053.49 611.898 1050.78 609.151C1049.4 607.75 1046.72 603.147 1046.62 604.967C1046.54 606.309 1049.52 609.074 1050.25 609.894C1052.59 612.539 1055.29 614.887 1057.81 617.396C1058.05 617.634 1060.76 621.046 1061.47 620.931C1062.19 620.815 1058.99 616.473 1058.78 616.2C1057.45 614.477 1052.59 610.366 1054.92 610.957C1060.04 612.258 1063.94 617.962 1067.41 621.123C1067.81 621.487 1069.03 622.911 1067.87 621.401C1066.16 619.17 1064.52 616.907 1062.7 614.739C1061.06 612.802 1059.12 610.991 1057.67 608.949C1056.4 607.156 1059.17 611.359 1059.18 611.37C1060.78 614.077 1066.58 621.654 1064.18 619.408C1058.57 614.153 1054.99 606.084 1052.5 599.459C1051.54 596.919 1050.67 594.335 1050.54 591.658C1050.43 589.627 1050.94 589.746 1051.72 591.668C1052.39 593.321 1055.95 602.935 1053.34 604.343C1051.7 605.224 1051.37 601.469 1050.77 599.902C1048.72 594.562 1047.57 589.197 1047.26 583.592C1047.21 582.663 1046.22 565.979 1048.09 565.845C1050.95 565.64 1049.23 581.364 1049.02 582.462C1048.43 585.505 1047.73 588.556 1046.85 591.549C1046.48 592.806 1046.08 594.513 1045.26 592.246C1042.65 585.029 1042.6 577.141 1043.13 569.673C1043.19 568.815 1043.12 565.542 1044.24 564.9C1045 564.462 1046.57 572.74 1046.58 572.884C1047.43 581.793 1046.43 590.898 1046.16 599.825C1046.13 600.706 1046.44 603.323 1046.19 602.468C1044.9 598.068 1045.27 593.176 1045.21 588.697C1045.1 581.94 1044.56 574.374 1046.69 567.783C1047.1 566.542 1047.64 567.799 1047.89 568.41C1049.52 572.438 1049.85 576.727 1049.65 580.951C1049.5 584.311 1049.05 587.67 1048.54 591.001C1048.39 591.916 1048.26 594.592 1047.91 593.718C1047.47 592.649 1048.24 590.246 1048.39 589.275C1049.12 584.564 1050.03 579.884 1050.56 575.149C1051.07 570.519 1050.89 556.766 1052.27 561.273C1054.82 569.619 1051.05 579.882 1049.91 588.244C1049.91 588.297 1049.56 592.977 1049.02 592.953C1048.46 592.929 1048.84 592.005 1048.85 591.527C1048.89 590.426 1049.13 587.492 1049.19 586.627C1049.61 580.421 1048.68 572.901 1050.95 566.901C1051.43 565.631 1052.06 567.752 1052.15 567.968C1053.26 570.889 1053.72 573.917 1054.07 576.959C1054.36 579.539 1054.6 582.135 1054.73 584.725C1054.79 585.942 1054.76 588.576 1054.08 585.354C1052.14 576.142 1051.27 566.231 1051.04 556.885C1051.03 556.511 1051.39 551.48 1051.12 552.559C1050.47 555.124 1049.71 557.674 1048.81 560.185C1048.63 560.693 1046.63 564.992 1046.41 564.446C1045.91 563.22 1046.93 559.986 1046.94 560.109C1047.06 561.434 1046.13 565.275 1045.8 563.974C1045.4 562.33 1048.25 559.258 1050.13 559.005C1054.21 558.456 1059.05 563.559 1061.54 565.653C1066.11 569.494 1070.89 573.653 1074.53 578.15C1076.81 580.965 1069.37 572.907 1066.71 570.342C1063.02 566.782 1057.9 563.157 1054.86 559.195C1051.86 555.278 1061 566.963 1064.43 570.621C1066.59 572.925 1068.64 575.272 1070.69 577.646C1072.78 580.072 1071.21 577.125 1070.56 576.237C1066.41 570.548 1061 565.618 1057.19 559.726C1056.75 559.038 1055.6 556.894 1056.04 557.584C1058.41 561.295 1061.2 564.822 1063.92 568.351C1070.1 576.364 1076.5 584.192 1083.51 591.694C1084.01 592.23 1085.84 594.22 1083.64 592.275C1080.21 589.232 1076.42 586.516 1072.96 583.498C1070.76 581.577 1065.76 575.857 1069.65 582.339C1073.19 588.256 1077.43 593.904 1081.16 599.743C1086.2 607.629 1072.8 583.25 1067.9 575.303C1065.29 571.074 1062.62 566.878 1060.22 562.561C1059.56 561.377 1058.26 558.443 1059.63 561.79C1064.38 573.473 1070.96 584.437 1076.79 595.736C1078.11 598.295 1079.19 600.948 1080.63 603.464C1082.57 606.873 1080.04 601.237 1079.93 600.984C1076.6 592.902 1072.5 585.163 1068.56 577.29C1067.96 576.086 1068 576.112 1067.54 575.111C1067.42 574.851 1067.75 575.64 1067.86 575.902C1069.98 580.918 1072.4 585.839 1074.53 590.853C1075.9 594.088 1077.2 597.346 1078.53 600.597C1078.91 601.532 1079.54 602.836 1078.24 600.916C1071.01 590.264 1065.89 578.581 1061.12 567.013C1060 564.275 1058.9 561.53 1057.78 558.789C1057.5 558.085 1057.41 556.186 1056.8 556.716C1055.93 557.469 1058.42 563.948 1058.56 565.311C1058.58 565.533 1055.63 562.379 1055.18 561.518C1053.99 559.244 1056.09 565.479 1056.28 566.18C1057.57 571.11 1055.25 564.015 1058.13 568.767C1058.81 569.891 1057.88 566.719 1057.72 566.321C1057 564.557 1061.69 569.16 1062.24 569.666C1071.7 578.419 1074.88 590.49 1076.23 601.942C1076.32 602.703 1076.54 607.617 1075.82 604.358C1074.65 599.086 1075.8 592.276 1078.27 587.349C1079.43 585.044 1081.1 593.146 1081.17 593.524C1082.23 599.378 1082.25 605.308 1081.72 611.191C1081.4 614.756 1080.67 607.273 1080.75 606.405C1080.94 604.395 1081.8 597.412 1083.16 603.113C1083.97 606.514 1083.93 612.748 1082.07 615.981C1081.76 616.525 1080.99 614.327 1080.97 614.297C1080.06 612.062 1079.23 609.839 1078.83 607.492C1077.77 601.22 1079.19 610.401 1079.41 611.981C1079.85 615.254 1081.56 624.949 1080.29 621.833C1078.84 618.258 1078.1 614.721 1078.01 610.942C1077.94 607.798 1079.18 611.411 1079.6 612.456" stroke="#303030" stroke-width="5" stroke-linecap="round"/>
<path id="Vector 3" d="M1052.89 565.673C1049.75 566.518 1047.01 567.743 1044.17 569.165C1041.53 570.489 1036.71 572.243 1035.38 574.824C1033.39 578.679 1034.1 583.108 1034.84 587.1C1036.33 595.165 1039.08 603.286 1043.43 610.626C1044.5 612.446 1045.63 614.239 1046.7 616.063C1047.49 617.427 1049.09 618.377 1050.35 619.422C1052.97 621.586 1056.33 622.821 1058.94 625.005C1060.36 626.197 1061.76 626.755 1063.71 626.935C1064.47 627.005 1065.86 626.258 1065.61 625.591C1065.06 624.153 1063.79 623.096 1062.27 622.317C1060.08 621.204 1058.65 620.029 1057.02 618.385C1054.4 615.735 1052.36 613.091 1048.41 611.879C1045.74 611.061 1043.15 609.468 1041.43 607.553C1039.74 605.673 1037.54 603.735 1036.2 601.658C1035.49 600.555 1034.58 599.483 1033.78 598.444C1031.16 595.049 1032.04 589.904 1032.85 586.199C1033.47 583.36 1034.11 580.414 1035.69 577.828C1036.58 576.372 1038.19 580.802 1038.34 581.303C1039.52 585.129 1039.66 589.102 1040.66 592.951C1041.6 596.603 1043.07 600.126 1044.41 603.689C1045.7 607.089 1046.98 610.49 1048.26 613.891C1048.82 615.353 1049.44 618.291 1051.38 619.046C1054.32 620.189 1058.02 619.981 1061.17 619.947C1063.64 619.92 1065.95 619.785 1068.31 619.148C1070.78 618.483 1073.12 617.769 1075.43 616.778C1076.93 616.135 1078.03 615.115 1079.36 614.279C1081.35 613.025 1082.13 611.829 1083.22 609.994C1084.23 608.285 1085.86 606.774 1086.41 604.929C1087.27 602.06 1087.59 599.118 1086.88 596.171C1085.8 591.681 1084.99 587.026 1083.34 582.653C1082.68 580.913 1082.13 579.116 1081.23 577.454C1080.28 575.71 1079.09 574.452 1077.72 572.941C1075.14 570.11 1072.74 568.155 1068.61 567.046C1067.32 566.696 1065.99 566.355 1064.68 566.047C1062.21 565.465 1066.49 568.73 1066.79 568.989C1073.26 574.543 1078.69 580.671 1081.51 588.153C1082.17 589.9 1083.33 591.833 1082.7 593.687" stroke="#303030" stroke-width="10" stroke-linecap="round"/>
<path id="O_3" d="M879.314 1039.23C884.13 1036.18 887.698 1032.56 890.016 1028.37C892.251 1024.24 893.424 1019.83 893.535 1015.14C893.699 1010.54 893.021 1005.82 891.499 1000.98C889.892 996.202 887.725 991.656 884.998 987.347C882.27 983.037 879.089 979.133 875.454 975.635C871.735 972.19 867.735 969.515 863.452 967.61C859.223 965.789 854.761 965.004 850.066 965.253C845.288 965.556 840.49 967.231 835.673 970.28C830.857 973.328 827.332 976.92 825.097 981.056C822.779 985.246 821.537 989.642 821.372 994.243C821.261 998.929 822.009 1003.66 823.615 1008.45C825.137 1013.28 827.262 1017.85 829.99 1022.16C832.717 1026.47 835.94 1030.35 839.659 1033.79C843.294 1037.29 847.226 1039.95 851.455 1041.77C855.738 1043.68 860.268 1044.48 865.047 1044.18C869.742 1043.93 874.497 1042.28 879.314 1039.23ZM887.496 1052.16C880.736 1056.44 873.893 1058.99 866.965 1059.83C859.953 1060.71 853.224 1060.18 846.778 1058.22C840.333 1056.27 834.32 1053.03 828.74 1048.52C823.075 1044.05 818.211 1038.61 814.146 1032.19C810.028 1025.68 807.165 1018.92 805.556 1011.89C803.863 1004.91 803.512 998.092 804.502 991.429C805.492 984.767 807.889 978.456 811.693 972.499C815.465 966.679 820.731 961.63 827.491 957.351C834.251 953.073 841.11 950.448 848.069 949.475C854.997 948.641 861.683 949.202 868.129 951.158C874.574 953.114 880.629 956.324 886.294 960.786C891.874 965.302 896.723 970.813 900.841 977.319C904.905 983.741 907.784 990.44 909.477 997.416C911.086 1004.44 911.395 1011.29 910.405 1017.95C909.415 1024.62 907.06 1030.9 903.341 1036.8C899.538 1042.76 894.256 1047.88 887.496 1052.16Z" fill="#303030"/>
<path id="Vector 11" d="M831.696 1002.1C831.723 1003.96 831.681 1006.16 831.978 1008C832.53 1011.42 842.548 1004.81 843.33 1004.33C850.492 999.944 858.678 994.334 864.035 987.324C867.817 982.375 862.867 979.451 858.535 980.587C847.922 983.371 837.765 992.627 830.472 1001C829.378 1002.26 821.558 1012.77 827.727 1013.92C831.239 1014.57 834.918 1012.3 837.616 1010.47C842.979 1006.84 847.774 1002.14 852.461 997.543C857.077 993.019 866.701 985.845 866.719 977.328C866.724 975.311 863.713 977.731 863.528 977.85C858.595 981.035 854.091 985.037 849.624 988.93C842.391 995.234 835.373 1001.83 828.345 1008.41C825.009 1011.53 821.148 1014.52 818.319 1018.28C813.33 1024.91 825.395 1020.03 826.892 1019.23C838.829 1012.92 849.771 1004.42 859.697 994.907C860.511 994.126 867.482 986.725 862.084 986.157C858.571 985.788 854.683 988.178 851.826 989.773C845.101 993.53 839.093 998.565 833.308 1003.81C830.129 1006.69 820.364 1014.86 824.074 1012.85C827.878 1010.79 831.352 1007.52 834.737 1004.8C842.958 998.205 850.891 991.213 858.664 983.989C861.65 981.213 864.786 978.531 867.559 975.485C867.949 975.057 870.157 972.372 867.77 973.702C857.556 979.395 848.434 988.744 839.813 996.882C836.872 999.658 833.97 1002.52 831.708 1006.05C831.682 1006.1 829.96 1009.8 830.15 1009.71C833.69 1008.11 837.2 1003.78 840.057 1001.23C848.621 993.605 857.266 986.113 865.973 978.686C868.799 976.276 871.672 973.93 874.488 971.507C875.098 970.983 875.658 970.456 875.214 970.872C873.989 972.019 872.763 973.166 871.537 974.314C858.377 986.634 844.495 997.877 830.805 1009.45C829.938 1010.19 822.504 1016.99 827.237 1012.62C836.141 1004.39 845.628 996.985 854.487 988.691C862.079 981.584 822.889 1015.41 831.096 1009.18C835.846 1005.58 840.538 1001.66 844.973 997.598C845.322 997.278 846.358 996.301 846.012 996.625C841.781 1000.59 837.55 1004.55 833.32 1008.51C829.516 1012.07 817.761 1022.28 821.564 1018.72C823.323 1017.07 829.153 1013.28 826.841 1013.78C825.153 1014.14 823.469 1016.04 821.978 1016.92C820.941 1017.54 821.727 1016.97 822.233 1016.51C824.555 1014.4 827.059 1012.67 829.746 1011.15C842.208 1004.1 853.97 997.099 864.669 987.083C871.23 980.941 851.059 998.712 843.964 1004.09C835.608 1010.42 827.168 1016.62 818.856 1023.02C818.563 1023.24 814.241 1026.71 815.374 1024.51C818.401 1018.65 822.739 1013.72 826.717 1008.75C828.199 1006.89 832.313 1003.73 832.558 1000.94C832.642 999.981 831.106 1001.86 830.472 1002.46C828.053 1004.72 825.541 1006.9 823.28 1009.37C822.716 1009.98 817.594 1016.56 820.378 1013.32C824.949 1007.99 828.736 1001.66 832.88 995.889C836.097 991.404 830.512 998.731 830.052 999.373C826.832 1003.86 816.818 1016.92 820.55 1012.98C826.352 1006.86 830.308 997.841 834.93 990.536C836.239 988.466 837.582 986.424 838.944 984.401C839.674 983.316 837.012 986.039 836.121 986.955C831.686 991.519 827.634 996.553 823.283 1001.22C822.863 1001.67 822.135 1002.53 823.118 1001.33C825.533 998.392 827.375 994.839 829.517 991.642C831.059 989.339 832.856 987.18 834.201 984.703C834.72 983.746 834.66 983.396 833.725 984.357C828.813 989.401 825.563 996.259 821.299 1001.98C820.758 1002.7 819.95 1003.94 819.129 1004.36C817.684 1005.09 821.132 1001.62 821.918 1000.08C823.655 996.663 824.987 992.967 826.582 989.458C827.396 987.669 830.734 983.516 828.997 984.072C827.717 984.482 826.205 988.258 825.698 989.229C824.067 992.36 822.84 995.718 821.402 998.974C821.266 999.283 819.05 1003.03 819.411 1003.66C819.779 1004.29 822.687 999.748 822.866 999.452C823.997 997.59 826.095 991.581 826.377 993.965C826.997 999.215 823.07 1004.9 821.36 1009.27C821.163 1009.77 820.27 1011.42 821.265 1009.8C822.736 1007.4 824.263 1005.07 825.633 1002.59C826.857 1000.37 827.852 997.906 829.239 995.819C830.456 993.988 827.526 998.081 827.517 998.092C825.565 1000.56 820.566 1008.68 821.805 1005.64C824.702 998.523 830.953 992.289 836.245 987.587C838.274 985.785 840.377 984.051 842.828 982.966C844.687 982.142 844.757 982.657 843.243 984.074C841.94 985.294 834.236 992.056 831.987 990.121C830.578 988.91 833.964 987.254 835.213 986.133C839.466 982.313 844.063 979.314 849.184 977.015C850.033 976.634 865.258 969.741 866.052 971.437C867.266 974.029 851.971 978.06 850.87 978.254C847.817 978.793 844.72 979.238 841.609 979.485C840.302 979.588 838.566 979.827 840.389 978.25C846.192 973.228 853.537 970.351 860.7 968.172C861.523 967.921 864.556 966.691 865.554 967.501C866.235 968.054 859.069 972.484 858.94 972.549C850.927 976.535 842.067 978.861 833.633 981.801C832.801 982.091 830.47 983.32 831.178 982.779C834.823 979.996 839.525 978.595 843.683 976.927C849.955 974.411 856.825 971.197 863.742 970.826C865.045 970.756 864.065 971.712 863.584 972.163C860.409 975.135 856.52 976.972 852.508 978.306C849.317 979.367 846.019 980.152 842.724 980.862C841.819 981.057 839.273 981.892 839.962 981.247C840.804 980.458 843.322 980.314 844.283 980.107C848.944 979.103 853.639 978.276 858.248 977.07C862.755 975.891 875.531 970.798 871.817 973.699C864.94 979.074 854.007 979.228 845.792 981.16C845.739 981.172 841.247 982.528 841.074 982.011C840.895 981.477 841.895 981.503 842.347 981.347C843.388 980.987 846.213 980.157 847.041 979.902C852.987 978.077 859.674 974.508 866.09 974.483C867.448 974.478 865.694 975.829 865.522 975.983C863.193 978.066 860.531 979.582 857.816 980.997C855.513 982.197 853.175 983.349 850.802 984.394C849.686 984.885 847.216 985.803 849.982 984.016C857.889 978.908 866.83 974.542 875.474 970.981C875.82 970.838 880.648 969.375 879.542 969.506C876.913 969.816 874.261 970.019 871.594 970.079C871.054 970.091 866.327 969.771 866.757 969.368C867.723 968.464 871.106 968.251 870.995 968.306C869.803 968.898 865.881 969.4 866.98 968.632C868.368 967.661 872.257 969.222 873.17 970.893C875.144 974.507 872.112 980.852 871.049 983.928C869.099 989.568 866.927 995.518 864.034 1000.53C862.223 1003.67 867.079 993.833 868.522 990.431C870.524 985.71 872.073 979.627 874.685 975.373C877.267 971.167 869.633 983.892 867.445 988.402C866.067 991.242 864.61 993.998 863.126 996.759C861.61 999.581 863.802 997.064 864.398 996.141C868.221 990.221 870.887 983.406 875.024 977.741C875.507 977.079 877.099 975.243 876.613 975.901C873.998 979.445 871.703 983.311 869.383 987.116C864.114 995.756 859.095 1004.53 854.603 1013.76C854.282 1014.42 853.078 1016.84 854.108 1014.09C855.72 1009.8 856.897 1005.29 858.477 1000.98C859.484 998.238 863.034 991.523 858.372 997.468C854.116 1002.89 850.363 1008.88 846.247 1014.45C840.69 1021.98 858.651 1000.74 864.314 993.314C867.328 989.363 870.291 985.371 873.461 981.581C874.33 980.542 876.607 978.284 873.97 980.753C864.762 989.373 856.883 999.445 848.423 1008.94C846.507 1011.09 844.417 1013.05 842.582 1015.29C840.095 1018.32 844.449 1013.94 844.648 1013.75C850.999 1007.74 856.758 1001.14 862.699 994.65C863.607 993.657 863.595 993.698 864.366 992.913C864.566 992.709 863.948 993.299 863.743 993.497C859.818 997.271 856.09 1001.29 852.172 1005.08C849.644 1007.52 847.068 1009.9 844.506 1012.3C843.769 1012.99 842.779 1014.05 844.105 1012.14C851.462 1001.58 860.535 992.616 869.63 984.023C871.782 981.99 873.951 979.979 876.111 977.956C876.666 977.437 878.409 976.68 877.695 976.297C876.679 975.754 871.522 980.399 870.3 981.019C870.101 981.12 871.989 977.234 872.63 976.504C874.327 974.576 869.259 978.776 868.671 979.199C864.531 982.169 870.326 977.469 866.918 981.852C866.112 982.889 868.743 980.892 869.057 980.598C870.447 979.297 867.828 985.321 867.551 986.013C862.769 997.987 852.638 1005.28 842.427 1010.63C841.748 1010.99 837.242 1012.96 840.026 1011.12C844.53 1008.14 851.297 1006.77 856.784 1007.32C859.352 1007.58 852.384 1012.03 852.055 1012.23C846.97 1015.32 841.442 1017.47 835.759 1019.08C832.316 1020.05 839.039 1016.69 839.879 1016.45C841.825 1015.91 848.65 1014.21 843.815 1017.52C840.931 1019.5 835.097 1021.7 831.413 1021.12C830.794 1021.02 832.568 1019.51 832.591 1019.49C834.353 1017.84 836.128 1016.26 838.177 1015.05C843.655 1011.82 835.592 1016.43 834.192 1017.2C831.296 1018.79 822.855 1023.85 825.31 1021.55C828.128 1018.91 831.167 1016.96 834.664 1015.53C837.573 1014.33 834.642 1016.78 833.818 1017.55" stroke="#303030" stroke-width="5" stroke-linecap="round"/>
<path id="Vector 12" d="M867.931 975.853C866.019 973.23 863.893 971.106 861.549 968.969C859.367 966.978 856.002 963.101 853.115 962.782C848.804 962.306 844.924 964.557 841.461 966.676C834.465 970.957 827.868 976.435 822.571 983.119C821.257 984.776 819.989 986.475 818.666 988.121C817.678 989.352 817.364 991.186 816.84 992.738C815.755 995.951 815.808 999.539 814.702 1002.75C814.099 1004.51 814.08 1006.02 814.608 1007.9C814.814 1008.63 816.01 1009.66 816.542 1009.19C817.691 1008.16 818.223 1006.6 818.403 1004.9C818.66 1002.46 819.246 1000.7 820.197 998.593C821.73 995.192 823.469 992.344 823.185 988.217C822.994 985.435 823.554 982.448 824.725 980.155C825.875 977.904 826.896 975.154 828.356 973.159C829.131 972.1 829.808 970.873 830.491 969.752C832.722 966.089 837.84 965.065 841.588 964.493C844.46 964.054 847.444 963.605 850.424 964.154C852.102 964.462 848.541 967.548 848.128 967.871C844.976 970.336 841.316 971.89 838.081 974.202C835.012 976.396 832.245 979.022 829.401 981.554C826.686 983.972 823.971 986.389 821.255 988.807C820.088 989.846 817.567 991.477 817.558 993.562C817.545 996.717 819.065 1000.1 820.224 1003.02C821.133 1005.32 822.089 1007.43 823.527 1009.41C825.032 1011.47 826.536 1013.4 828.29 1015.2C829.427 1016.37 830.774 1017.04 832.031 1017.98C833.915 1019.39 835.31 1019.69 837.413 1020.05C839.372 1020.38 841.366 1021.36 843.286 1021.21C846.273 1020.99 849.133 1020.23 851.63 1018.51C855.434 1015.89 859.493 1013.48 862.984 1010.37C864.374 1009.13 865.853 1007.97 867.081 1006.53C868.37 1005.02 869.12 1003.47 870.039 1001.64C871.759 998.221 872.723 995.276 872.282 991.028C872.143 989.691 871.988 988.334 871.806 986.998C871.462 984.478 869.949 989.651 869.815 990.025C866.945 998.049 863.168 1005.31 857.194 1010.63C855.799 1011.87 854.409 1013.64 852.453 1013.72" stroke="#303030" stroke-width="10" stroke-linecap="round"/>
<path id="Vector 9" d="M434.717 269.259C434.227 271.047 433.574 273.149 433.346 275.004C432.925 278.441 444.387 274.878 445.272 274.636C453.372 272.415 462.796 269.305 469.891 264.064C474.901 260.362 470.961 256.176 466.484 256.062C455.515 255.782 443.184 261.846 433.847 267.863C432.447 268.765 422.011 276.685 427.617 279.503C430.808 281.108 434.974 279.951 438.074 278.945C444.237 276.944 450.151 273.765 455.931 270.657C461.624 267.597 472.864 263.384 475.252 255.209C475.817 253.273 472.252 254.759 472.041 254.822C466.417 256.509 460.977 259.099 455.603 261.595C446.901 265.637 438.325 270.02 429.743 274.384C425.669 276.456 421.131 278.25 417.366 281.074C410.729 286.055 423.677 284.721 425.335 284.377C438.558 281.634 451.432 276.519 463.615 270.139C464.614 269.616 473.369 264.447 468.342 262.399C465.071 261.067 460.671 262.281 457.484 263.018C449.979 264.754 442.807 267.919 435.791 271.345C431.936 273.227 420.284 278.355 424.406 277.459C428.633 276.539 432.88 274.366 436.887 272.698C446.619 268.649 456.185 264.141 465.661 259.365C469.301 257.53 473.059 255.827 476.571 253.672C477.065 253.37 479.932 251.406 477.27 252.019C465.875 254.644 454.512 261.085 443.966 266.503C440.369 268.35 436.784 270.296 433.629 273.057C433.592 273.089 430.908 276.169 431.114 276.139C434.961 275.58 439.539 272.397 442.99 270.749C453.339 265.807 463.727 261.016 474.157 256.306C477.542 254.778 480.954 253.324 484.334 251.78C485.065 251.446 485.75 251.096 485.208 251.372C483.711 252.133 482.215 252.894 480.718 253.655C464.649 261.826 448.187 268.762 431.816 276.07C430.779 276.533 421.744 281.002 427.508 278.116C438.351 272.689 449.523 268.22 460.34 262.719C469.61 258.005 422.555 279.586 432.171 275.89C437.736 273.75 443.334 271.294 448.724 268.626C449.148 268.416 450.414 267.766 449.992 267.981C444.826 270.608 439.66 273.235 434.495 275.862C429.851 278.223 415.717 284.761 420.361 282.4C422.509 281.308 429.163 279.289 426.804 279.124C425.082 279.003 422.938 280.354 421.259 280.79C420.091 281.093 421.005 280.763 421.618 280.463C424.436 279.081 427.323 278.116 430.327 277.404C444.258 274.103 457.504 270.651 470.567 264.008C478.578 259.935 454.259 271.391 445.948 274.58C436.16 278.337 426.329 281.94 416.564 285.773C416.22 285.908 411.103 288.037 412.803 286.243C417.343 281.451 422.88 277.927 428.086 274.253C430.026 272.885 434.857 270.992 435.867 268.386C436.217 267.484 434.217 268.864 433.443 269.258C430.49 270.76 427.47 272.156 424.612 273.893C423.9 274.326 417.15 279.22 420.726 276.878C426.599 273.034 431.997 268.013 437.583 263.619C441.922 260.207 434.519 265.69 433.897 266.179C429.556 269.591 416.305 279.346 420.984 276.603C428.261 272.337 434.57 264.779 441.042 259.049C442.876 257.425 444.734 255.837 446.605 254.273C447.609 253.434 444.293 255.308 443.183 255.941C437.653 259.09 432.361 262.797 426.882 266.069C426.354 266.384 425.417 267.003 426.693 266.129C429.83 263.979 432.589 261.079 435.535 258.604C437.657 256.821 439.985 255.248 441.965 253.243C442.73 252.469 442.77 252.115 441.604 252.778C435.483 256.256 430.452 261.939 424.766 266.243C424.045 266.789 422.923 267.757 422.018 267.929C420.426 268.231 424.705 265.855 425.89 264.59C428.508 261.796 430.815 258.616 433.324 255.69C434.604 254.198 438.966 251.138 437.143 251.189C435.799 251.226 433.296 254.432 432.539 255.224C430.101 257.777 427.988 260.662 425.701 263.389C425.484 263.647 422.312 266.633 422.486 267.331C422.662 268.041 426.719 264.489 426.974 264.255C428.578 262.781 432.266 257.594 431.873 259.962C431.008 265.177 425.653 269.548 422.795 273.266C422.466 273.695 421.149 275.028 422.556 273.749C424.635 271.857 426.753 270.036 428.759 268.035C430.552 266.245 432.193 264.158 434.106 262.539C435.785 261.119 431.831 264.235 431.82 264.243C429.258 266.069 422.196 272.482 424.232 269.904C428.996 263.873 436.735 259.626 443.127 256.583C445.577 255.416 448.079 254.336 450.735 253.975C452.75 253.702 452.674 254.215 450.825 255.156C449.234 255.964 439.953 260.315 438.331 257.831C437.315 256.275 441.028 255.628 442.54 254.898C447.688 252.413 452.938 250.812 458.497 250.029C459.417 249.899 475.96 247.515 476.251 249.365C476.695 252.192 460.882 251.808 459.771 251.688C456.688 251.355 453.59 250.921 450.533 250.292C449.249 250.028 447.515 249.775 449.705 248.767C456.676 245.558 464.532 244.839 472.018 244.739C472.879 244.728 476.134 244.39 476.867 245.446C477.368 246.167 469.252 248.428 469.109 248.454C460.303 250.052 451.146 249.821 442.228 250.298C441.348 250.345 438.766 250.876 439.598 250.553C443.873 248.895 448.779 248.858 453.237 248.413C459.961 247.742 467.454 246.567 474.202 248.135C475.472 248.431 474.265 249.076 473.678 249.375C469.801 251.347 465.554 252.028 461.329 252.194C457.969 252.325 454.583 252.161 451.221 251.926C450.297 251.861 447.62 251.954 448.461 251.527C449.489 251.003 451.948 251.566 452.928 251.634C457.684 251.967 462.425 252.479 467.187 252.604C471.844 252.726 485.533 251.389 481.158 253.143C473.056 256.39 462.513 253.496 454.085 253.065C454.031 253.063 449.338 253.115 449.316 252.57C449.293 252.008 450.246 252.311 450.723 252.287C451.824 252.231 454.768 252.219 455.634 252.205C461.854 252.107 469.269 250.54 475.438 252.302C476.745 252.675 474.684 253.484 474.476 253.584C471.659 254.937 468.681 255.651 465.679 256.255C463.133 256.767 460.567 257.223 457.996 257.566C456.788 257.727 454.161 257.921 457.315 256.975C466.331 254.269 476.133 252.564 485.427 251.549C485.798 251.508 490.843 251.447 489.744 251.264C487.133 250.83 484.529 250.288 481.951 249.603C481.429 249.464 476.978 247.841 477.503 247.574C478.683 246.975 481.991 247.712 481.869 247.734C480.56 247.97 476.653 247.361 477.922 246.929C479.526 246.383 482.827 248.964 483.238 250.823C484.129 254.844 479.451 260.094 477.574 262.753C474.131 267.627 470.39 272.738 466.215 276.749C463.602 279.259 471.005 271.162 473.337 268.296C476.574 264.319 479.754 258.907 483.447 255.548C487.097 252.227 476.223 262.325 472.867 266.048C470.753 268.392 468.586 270.633 466.393 272.873C464.152 275.161 466.957 273.354 467.787 272.633C473.106 268.01 477.563 262.206 483.114 257.917C483.762 257.416 485.801 256.095 485.151 256.592C481.654 259.268 478.373 262.343 475.086 265.352C467.621 272.184 460.359 279.214 453.474 286.833C452.983 287.377 451.153 289.363 452.907 287.013C455.65 283.338 458.037 279.329 460.753 275.632C462.483 273.279 467.762 267.818 461.629 272.231C456.032 276.258 450.761 280.96 445.256 285.171C437.823 290.857 460.987 275.449 468.493 269.894C472.487 266.938 476.444 263.929 480.543 261.171C481.668 260.414 484.483 258.879 481.262 260.517C470.02 266.233 459.649 273.715 448.881 280.48C446.443 282.011 443.89 283.312 441.504 284.952C438.27 287.175 443.673 284.175 443.916 284.05C451.689 280.045 459.056 275.312 466.57 270.728C467.718 270.027 467.695 270.063 468.654 269.524C468.903 269.384 468.145 269.778 467.893 269.911C463.073 272.444 458.373 275.269 453.557 277.814C450.449 279.456 447.312 281.025 444.184 282.616C443.284 283.073 442.038 283.817 443.842 282.357C453.848 274.259 465.058 268.172 476.184 262.45C478.817 261.096 481.46 259.767 484.097 258.426C484.775 258.082 486.66 257.84 486.08 257.274C485.256 256.469 479.01 259.496 477.663 259.751C477.444 259.792 480.339 256.585 481.158 256.063C483.324 254.683 477.288 257.307 476.605 257.549C471.802 259.25 478.677 256.348 474.183 259.61C473.12 260.381 476.204 259.195 476.587 259C478.284 258.137 474.092 263.195 473.634 263.783C465.708 273.953 453.948 278.135 442.65 280.439C441.899 280.593 437.022 281.232 440.209 280.239C445.364 278.632 452.246 279.196 457.363 281.25C459.757 282.211 451.825 284.551 451.454 284.651C445.71 286.202 439.803 286.727 433.896 286.694C430.317 286.673 437.711 285.31 438.583 285.32C440.602 285.342 447.632 285.606 442.066 287.442C438.746 288.537 432.531 289.026 429.153 287.447C428.585 287.182 430.71 286.223 430.738 286.208C432.889 285.115 435.034 284.093 437.338 283.501C443.499 281.92 434.471 284.106 432.914 284.453C429.691 285.17 420.173 287.687 423.171 286.162C426.612 284.413 430.074 283.382 433.832 282.977C436.959 282.639 433.463 284.174 432.457 284.685" stroke="#303030" stroke-width="5" stroke-linecap="round"/>
<path id="Vector 10" d="M476.826 254.13C475.72 251.078 474.268 248.447 472.612 245.741C471.07 243.222 468.917 238.562 466.233 237.452C462.225 235.795 457.871 236.877 453.955 237.949C446.044 240.114 438.184 243.539 431.235 248.485C429.513 249.711 427.821 250.99 426.093 252.203C424.801 253.111 423.989 254.784 423.054 256.129C421.118 258.914 420.17 262.375 418.213 265.155C417.146 266.672 416.708 268.117 416.692 270.069C416.686 270.829 417.548 272.153 418.19 271.846C419.578 271.183 420.524 269.829 421.172 268.242C422.097 265.973 423.148 264.45 424.649 262.688C427.068 259.847 429.531 257.596 430.407 253.553C430.997 250.827 432.366 248.114 434.129 246.238C435.86 244.396 437.607 242.038 439.564 240.528C440.603 239.727 441.595 238.737 442.562 237.851C445.725 234.953 450.926 235.394 454.685 235.887C457.566 236.265 460.557 236.664 463.266 238.02C464.792 238.784 460.513 240.756 460.026 240.951C456.313 242.442 452.366 242.916 448.614 244.237C445.056 245.49 441.668 247.242 438.231 248.883C434.951 250.449 431.67 252.015 428.389 253.582C426.979 254.255 424.104 255.121 423.515 257.12C422.624 260.147 423.143 263.818 423.442 266.95C423.676 269.408 424.006 271.704 424.838 274.002C425.709 276.404 426.618 278.673 427.8 280.894C428.566 282.333 429.675 283.346 430.621 284.601C432.037 286.48 433.295 287.153 435.215 288.083C437.003 288.95 438.646 290.446 440.531 290.841C443.463 291.455 446.42 291.522 449.297 290.566C453.68 289.11 458.251 287.918 462.47 285.904C464.148 285.103 465.892 284.399 467.472 283.36C469.13 282.269 470.284 280.982 471.674 279.485C474.278 276.68 476.023 274.118 476.782 269.916C477.021 268.593 477.249 267.247 477.446 265.913C477.817 263.397 474.924 267.944 474.692 268.266C469.701 275.174 464.053 281.099 456.835 284.545C455.15 285.349 453.321 286.665 451.421 286.195" stroke="#303030" stroke-width="10" stroke-linecap="round"/>
</g>
</svg>
