<svg display="none" width="0" height="0" xmlns="http://www.w3.org/2000/svg">
  <defs>
    <symbol viewBox="0 0 1200 761.3" id="logo-vd-op-text">
      <path d="M688.4 26.2c-31.3 0-61.1 6.1-88.4 17.1-27.3-11-57.1-17.1-88.4-17.1-130.2 0-235.7 105.5-235.7 235.7s105.5 235.7 235.7 235.7c31.3 0 61.1-6.1 88.4-17.1 27.3 11 57.1 17.1 88.4 17.1 130.2 0 235.7-105.5 235.7-235.7S818.5 26.2 688.4 26.2zM511.6 488.6c-125 0-226.7-101.7-226.7-226.7 0-125 101.7-226.7 226.7-226.7 26.9 0 52.7 4.7 76.6 13.3-80.1 37.7-135.5 119-135.5 213.4s55.4 175.7 135.5 213.4c-23.9 8.6-49.7 13.3-76.6 13.3zm176.8 0c-26.9 0-52.7-4.7-76.6-13.3 80.1-37.7 135.5-119 135.5-213.4S691.9 86.2 611.8 48.5c23.9-8.6 49.7-13.3 76.6-13.3 125 0 226.7 101.7 226.7 226.7 0 125-101.7 226.7-226.7 226.7zM41.6 735.1c-13.5 0-23.8-4.2-30.9-12.6C3.6 714 0 703.2 0 690s3.6-24 10.7-32.5c7.1-8.4 17.4-12.6 30.9-12.6 13.4 0 23.7 4.2 30.8 12.6 7.2 8.4 10.7 19.2 10.7 32.5 0 13.2-3.6 24-10.7 32.5-7.2 8.3-17.4 12.6-30.8 12.6zm-18-23.6c4 5.2 10 7.8 18 7.8s13.9-2.6 18-7.8c4-5.2 6-12.4 6-21.5s-2-16.3-6-21.5c-4-5.2-10-7.9-18-7.9s-13.9 2.6-18 7.9c-4 5.2-6 12.4-6 21.5s2 16.3 6 21.5zM141.1 733.9v-72.3h-25.9V646h69.1v15.6h-25.9v72.3h-17.3zM277.3 646h17.2v87.9h-17.2v-37.7h-38.1v37.7H222V646h17.2v34.8h38.1V646zM339.4 733.9V646h60.9v15.4h-43.7v19.5h39.8v15.3h-39.8v22.4h43.7v15.3h-60.9zM491.4 699.8l21.9 32.9v1.3h-19.8l-20.2-32.1h-14.8V734h-17.2v-88h38.6c9 0 16.1 2.6 21.4 7.9s8 11.8 8 19.6c0 6.4-1.6 11.8-4.8 16.4-3.4 4.6-7.7 7.9-13.1 9.9zm-33.1-38.3v25h20.5c4.2 0 7.3-1.2 9.4-3.6 2.1-2.4 3.1-5.5 3.1-9.2 0-3.5-1.1-6.4-3.2-8.7-2.1-2.3-5.3-3.5-9.4-3.5h-20.4zM611.4 733.9V646h37.7c8.8 0 15.8 2.7 21.1 8 5.3 5.4 7.9 12.2 7.9 20.6 0 8.5-2.7 15.5-8 21-5.3 5.4-12.3 8.2-21 8.2h-20.5v30.1h-17.2zm17.2-45.6H646c9.7 0 14.6-4.6 14.6-13.7 0-4.3-1.3-7.6-3.8-9.9-2.6-2.3-6.1-3.5-10.7-3.5h-17.3v27.1zM718 733.9V646h60.9v15.4h-43.7v19.5H775v15.3h-39.8v22.4h43.7v15.3H718zM856.3 735.1c-13.5 0-23.8-4.2-30.9-12.6-7.1-8.4-10.7-19.2-10.7-32.5 0-13.2 3.6-24 10.7-32.5 7.1-8.4 17.4-12.6 30.9-12.6 13.4 0 23.7 4.2 30.8 12.6 7.2 8.4 10.7 19.2 10.7 32.5 0 13.2-3.6 24-10.7 32.5-7.1 8.3-17.4 12.6-30.8 12.6zm-18-23.6c4 5.2 10 7.8 18 7.8s13.9-2.6 18-7.8c4-5.2 6-12.4 6-21.5s-2-16.3-6-21.5c-4-5.2-10-7.9-18-7.9s-13.9 2.6-18 7.9c-4 5.2-6 12.4-6 21.5s2 16.3 6 21.5zM937.8 733.9V646h37.7c8.8 0 15.8 2.7 21.1 8 5.3 5.4 7.9 12.2 7.9 20.6 0 8.5-2.7 15.5-8 21-5.3 5.4-12.3 8.2-21 8.2H955v30.1h-17.2zm17.2-45.6h17.3c9.7 0 14.6-4.6 14.6-13.7 0-4.3-1.3-7.6-3.8-9.9-2.6-2.3-6.1-3.5-10.7-3.5H955v27.1zM1044.4 733.9V646h17.2v72.5h40.6v15.4h-57.8zM1139.1 733.9V646h60.9v15.4h-43.7v19.5h39.8v15.3h-39.8v22.4h43.7v15.3h-60.9z" />
    </symbol>

    <symbol viewBox="0 0 17.295 18.914" id="search-icon" fill="none">
      <path stroke="inherit" stroke-width="2.5" d="m12.096 12.268c-2.965 0.898-6.1294-0.7796-7.0607-3.7602-0.93137-2.9806 0.728-6.1193 3.6931-7.0174 2.965-0.89808 6.1294 0.77953 7.0607 3.7602 0.9314 2.9806-0.728 6.1193-3.6931 7.0174z" />
      <line stroke="inherit" stroke-width="2.5" x1=".97132" x2="6.5797" y1="18.127" y2="11.203" />
    </symbol>

    <symbol viewBox="0 0 100 100" id="circle-fill">
      <circle cx="50" cy="50" r="50" />
    </symbol>

    <symbol viewBox="0 0 110 110" fill="none" id="circle-outline">
      <circle cx="55" cy="55" r="50" />
    </symbol>

    <symbol viewBox="0 0 89 64" id="vd-outline">
      <circle id="lcirc" cx="32" cy="32" r="25" stroke="inherit" stroke-width="inherit" fill="transparent" />
      <circle id="rcirc" cx="57" cy="32" r="25" stroke="inherit" stroke-width="inherit" fill="transparent" />
    </symbol>

    <symbol viewBox="0 0 21.431 14.817" id="vd-fill">
      <circle cx="7.4083" cy="7.4083" r="6.58" stroke="inherit" stroke-width="inherit" fill="transparent" />
      <circle cx="14.023" cy="7.4083" r="6.58" stroke="inherit" stroke-width="inherit" fill="transparent" />
      <path fill="inherit" d="m10.705 1.7459c-1.2632 0.73713-2.2626 1.9106-2.7944 3.2725-0.57201 1.4466-0.60214 3.0984-0.08021 4.5641 0.47836 1.3668 1.4218 2.5655 2.6428 3.3451 0.08271 0.0451 0.15845 0.11734 0.25024 0.13881 0.21461-0.1078 0.40785-0.25555 0.60396-0.39363 0.5458-0.41846 1.043-0.90682 1.4363-1.473 1.0174-1.4198 1.4251-3.2589 1.1004-4.9754-0.12204-0.66414-0.34727-1.3085-0.66636-1.9036-0.54277-1.0272-1.3699-1.9001-2.3586-2.5088-0.04417-0.019402-0.08479-0.071077-0.13404-0.066119z"/>
    </symbol>

    <symbol viewBox="0 0 971 944" id="other-people-homepage-circle">
       <g fill="inherit">
        <path d="m357.49 216.92c-8.888 4.24-16.724 4.996-23.51 2.267-8.862-3.09-15.704-10.37-20.525-21.839-4.918-11.701-5.46-21.986-1.625-30.856 2.608-7.21 8.355-12.935 17.243-17.175 8.887-4.239 16.724-4.995 23.509-2.267 8.737 2.873 15.565 10.159 20.483 21.86 4.822 11.469 5.378 21.748 1.668 30.836-2.608 7.21-8.356 12.934-17.243 17.174zm5.063-23.017c1.37-5.336 0.543-11.601-2.481-18.794-3.012-7.165-6.856-11.973-11.533-14.424-4.661-2.493-9.565-2.512-14.712-0.057s-8.433 6.364-9.859 11.727-0.628 11.641 2.396 18.834c3.024 7.194 6.889 12.01 11.594 14.447 4.705 2.438 9.631 2.429 14.778-0.026 5.146-2.456 8.419-6.358 9.817-11.707z"/>
        <path d="m442.84 117.54 1.732 12.142-20.284 3.7 8.049 56.427-14.259 2.602-8.049-56.428-20.376 3.718-1.732-12.142z"/>
        <path d="m504.15 186.91 2.768-30.767-26.893-1.83-2.768 30.766-14.24-0.969 6.201-68.921 14.241 0.969-2.365 26.278 26.893 1.83 2.364-26.278 14.287 0.973-6.201 68.921z"/>
        <path d="m595.82 177.33-31.812-10.664-5.639 16.852 36.255 12.153-3.944 11.784-49.628-16.636 21.932-65.542 48.029 16.1-3.883 11.605-34.656-11.617-4.657 13.918 31.812 10.664z"/>
        <path d="m640.7 204.25-12.553-8.069-14.129 23.087-11.881-7.637 36.031-58.876 28.539 18.345c4.03 2.701 6.852 5.22 8.466 7.556 1.64 2.353 2.669 4.925 3.087 7.717 0.351 2.303 0.34 4.597-0.031 6.882-0.371 2.284-1.266 4.585-2.684 6.901-1.711 2.796-4.095 5.104-7.152 6.924-3.04 1.793-6.508 2.217-10.403 1.271 2.016 2.817 2.957 5.593 2.824 8.327-0.091 2.725-1.399 6.151-3.925 10.278l-2.42 3.955c-1.646 2.689-2.657 4.581-3.033 5.675-0.613 1.721-0.561 3.313 0.157 4.776l-0.904 1.478-13.382-8.601c0.43-1.542 0.811-2.763 1.142-3.663 0.695-1.854 1.558-3.655 2.591-5.403l3.27-5.523c2.245-3.789 3.093-6.731 2.543-8.829-0.523-2.08-2.574-4.271-6.153-6.571zm13.932-5.96c3.106 0.438 5.669-0.994 7.69-4.296 2.183-3.569 2.479-6.718 0.887-9.448-0.893-1.538-2.654-3.153-5.286-4.845l-14.131-9.083-9.68 15.817 13.776 8.855c2.737 1.76 4.985 2.759 6.744 3z"/>
        <path d="m721.76 281.16-8.761-11.815-19.24 15.622-8.565-11.551 53.508-43.447 17.97 24.235c4.143 5.587 6.066 11.161 5.771 16.723-0.296 5.562-3.336 10.691-9.12 15.388-6.316 5.128-12.013 7.093-17.09 5.893-5.077-1.199-9.901-4.882-14.473-11.048zm15.175-3.613c2.403 0.469 4.995-0.427 7.778-2.687 2.783-2.259 4.199-4.638 4.246-7.136 0.067-2.473-0.917-5.081-2.951-7.824l-8.034-10.834-15.755 12.792 8.034 10.834c2.034 2.743 4.261 4.362 6.682 4.855z"/>
        <path d="m771.25 361.34-12.82-31.121-16.044 7.512 14.61 35.467-11.218 5.252-19.999-48.55 62.397-29.214 19.355 46.985-11.049 5.173-13.965-33.902-13.25 6.203 12.82 31.121z"/>
        <path d="m752.77 422.38c-1.13-9.834 0.657-17.754 5.361-23.76 5.701-7.963 14.669-12.879 26.902-14.747 12.481-1.905 22.249 0.15 29.305 6.166 5.897 4.387 9.41 11.498 10.54 21.332 1.129 9.833-0.658 17.753-5.361 23.759-5.459 7.895-14.428 12.795-26.908 14.7-12.234 1.868-22-0.171-29.299-6.118-5.898-4.388-9.411-11.498-10.54-21.332zm19.864 10.789c4.543 2.694 10.65 3.456 18.323 2.284 7.643-1.166 13.351-3.748 17.125-7.744 3.808-3.969 5.385-8.802 4.731-14.496-0.654-5.695-3.255-9.921-7.805-12.678s-10.661-3.549-18.334-2.378c-7.673 1.172-13.395 3.771-17.165 7.798-3.771 4.027-5.329 8.888-4.675 14.583s3.254 9.905 7.8 12.631z"/>
        <path d="m780.65 416.22c-1.09-9.838 0.729-17.751 5.456-23.738 5.733-7.941 14.72-12.82 26.961-14.639 12.488-1.856 22.248 0.238 29.28 6.282 5.879 4.411 9.364 11.536 10.454 21.374s-0.728 17.75-5.455 23.738c-5.49 7.873-14.479 12.737-26.967 14.592-12.241 1.819-21.999-0.259-29.274-6.235-5.88-4.411-9.365-11.536-10.455-21.374zm19.821 10.868c4.532 2.713 10.637 3.499 18.314 2.358 7.647-1.136 13.365-3.695 17.155-7.676 3.825-3.954 5.421-8.78 4.79-14.478-0.631-5.697-3.216-9.933-7.755-12.708s-10.647-3.592-18.324-2.451c-7.678 1.141-13.41 3.717-17.197 7.729-3.786 4.012-5.364 8.867-4.732 14.564 0.631 5.698 3.214 9.918 7.749 12.662z"/>
        <path d="m777.78 504.32 2.412-14.49-24.534-3.709 2.358-14.165 68.231 10.315-4.947 29.72c-1.141 6.851-3.809 12.048-8.005 15.59-4.197 3.541-9.982 4.755-17.358 3.64-8.054-1.218-13.409-4.116-16.064-8.693-2.654-4.578-3.352-10.647-2.093-18.208zm13.101 8.814c1.327 2.099 3.765 3.417 7.314 3.954 3.549 0.536 6.236-0.023 8.062-1.676 1.82-1.624 3.01-4.117 3.57-7.481l2.212-13.286-20.09-3.037-2.211 13.286c-0.561 3.364-0.179 6.111 1.143 8.24z"/>
        <path d="m807.75 570.02-5.841 13.199-51.61-23.448-13.846 31.284-11.312-5.14 19.687-44.483z"/>
        <path d="m713.88 654.47 20.635-26.404-13.672-11.391-23.516 30.091-9.559-7.965 32.191-41.192 53.17 44.305-31.154 39.864-9.414-7.845 22.478-28.764-11.29-9.408-20.634 26.404z"/>
        <path d="m312.17 125.69c8.671-4.725 16.568-5.968 23.69-3.728 9.262 2.462 16.824 9.16 22.686 20.094 5.98 11.154 7.396 21.202 4.246 30.142-2.042 7.234-7.399 13.214-16.07 17.939-8.672 4.725-16.568 5.968-23.691 3.728-9.116-2.257-16.665-8.962-22.645-20.116-5.862-10.934-7.291-20.974-4.287-30.12 2.043-7.234 7.4-13.214 16.071-17.939zm-3.207 22.887c-0.943 5.318 0.424 11.406 4.101 18.263 3.662 6.831 7.971 11.297 12.928 13.401 4.944 2.145 9.927 1.85 14.949-0.886 5.021-2.737 8.031-6.779 9.029-12.127 0.997-5.348-0.342-11.451-4.019-18.309s-8.007-11.331-12.991-13.419c-4.985-2.088-9.988-1.764-15.009 0.972-5.022 2.737-8.018 6.771-8.988 12.105z"/>
      </g>
      <g transform="rotate(180 485.93 451.72)" fill="inherit">
        <path d="m357.49 216.92c-8.888 4.24-16.724 4.996-23.51 2.267-8.862-3.09-15.704-10.37-20.525-21.839-4.918-11.701-5.46-21.986-1.625-30.856 2.608-7.21 8.355-12.935 17.243-17.175 8.887-4.239 16.724-4.995 23.509-2.267 8.737 2.873 15.565 10.159 20.483 21.86 4.822 11.469 5.378 21.748 1.668 30.836-2.608 7.21-8.356 12.934-17.243 17.174zm5.063-23.017c1.37-5.336 0.543-11.601-2.481-18.794-3.012-7.165-6.856-11.973-11.533-14.424-4.661-2.493-9.565-2.512-14.712-0.057s-8.433 6.364-9.859 11.727-0.628 11.641 2.396 18.834c3.024 7.194 6.889 12.01 11.594 14.447 4.705 2.438 9.631 2.429 14.778-0.026 5.146-2.456 8.419-6.358 9.817-11.707z"/>
        <path d="m442.84 117.54 1.732 12.142-20.284 3.7 8.049 56.427-14.259 2.602-8.049-56.428-20.376 3.718-1.732-12.142z"/>
        <path d="m504.15 186.91 2.768-30.767-26.893-1.83-2.768 30.766-14.24-0.969 6.201-68.921 14.241 0.969-2.365 26.278 26.893 1.83 2.364-26.278 14.287 0.973-6.201 68.921z"/>
        <path d="m595.82 177.33-31.812-10.664-5.639 16.852 36.255 12.153-3.944 11.784-49.628-16.636 21.932-65.542 48.029 16.1-3.883 11.605-34.656-11.617-4.657 13.918 31.812 10.664z"/>
        <path d="m640.7 204.25-12.553-8.069-14.129 23.087-11.881-7.637 36.031-58.876 28.539 18.345c4.03 2.701 6.852 5.22 8.466 7.556 1.64 2.353 2.669 4.925 3.087 7.717 0.351 2.303 0.34 4.597-0.031 6.882-0.371 2.284-1.266 4.585-2.684 6.901-1.711 2.796-4.095 5.104-7.152 6.924-3.04 1.793-6.508 2.217-10.403 1.271 2.016 2.817 2.957 5.593 2.824 8.327-0.091 2.725-1.399 6.151-3.925 10.278l-2.42 3.955c-1.646 2.689-2.657 4.581-3.033 5.675-0.613 1.721-0.561 3.313 0.157 4.776l-0.904 1.478-13.382-8.601c0.43-1.542 0.811-2.763 1.142-3.663 0.695-1.854 1.558-3.655 2.591-5.403l3.27-5.523c2.245-3.789 3.093-6.731 2.543-8.829-0.523-2.08-2.574-4.271-6.153-6.571zm13.932-5.96c3.106 0.438 5.669-0.994 7.69-4.296 2.183-3.569 2.479-6.718 0.887-9.448-0.893-1.538-2.654-3.153-5.286-4.845l-14.131-9.083-9.68 15.817 13.776 8.855c2.737 1.76 4.985 2.759 6.744 3z"/>
        <path d="m721.76 281.16-8.761-11.815-19.24 15.622-8.565-11.551 53.508-43.447 17.97 24.235c4.143 5.587 6.066 11.161 5.771 16.723-0.296 5.562-3.336 10.691-9.12 15.388-6.316 5.128-12.013 7.093-17.09 5.893-5.077-1.199-9.901-4.882-14.473-11.048zm15.175-3.613c2.403 0.469 4.995-0.427 7.778-2.687 2.783-2.259 4.199-4.638 4.246-7.136 0.067-2.473-0.917-5.081-2.951-7.824l-8.034-10.834-15.755 12.792 8.034 10.834c2.034 2.743 4.261 4.362 6.682 4.855z"/>
        <path d="m771.25 361.34-12.82-31.121-16.044 7.512 14.61 35.467-11.218 5.252-19.999-48.55 62.397-29.214 19.355 46.985-11.049 5.173-13.965-33.902-13.25 6.203 12.82 31.121z"/>
        <path d="m752.77 422.38c-1.13-9.834 0.657-17.754 5.361-23.76 5.701-7.963 14.669-12.879 26.902-14.747 12.481-1.905 22.249 0.15 29.305 6.166 5.897 4.387 9.41 11.498 10.54 21.332 1.129 9.833-0.658 17.753-5.361 23.759-5.459 7.895-14.428 12.795-26.908 14.7-12.234 1.868-22-0.171-29.299-6.118-5.898-4.388-9.411-11.498-10.54-21.332zm19.864 10.789c4.543 2.694 10.65 3.456 18.323 2.284 7.643-1.166 13.351-3.748 17.125-7.744 3.808-3.969 5.385-8.802 4.731-14.496-0.654-5.695-3.255-9.921-7.805-12.678s-10.661-3.549-18.334-2.378c-7.673 1.172-13.395 3.771-17.165 7.798-3.771 4.027-5.329 8.888-4.675 14.583s3.254 9.905 7.8 12.631z"/>
        <path d="m780.65 416.22c-1.09-9.838 0.729-17.751 5.456-23.738 5.733-7.941 14.72-12.82 26.961-14.639 12.488-1.856 22.248 0.238 29.28 6.282 5.879 4.411 9.364 11.536 10.454 21.374s-0.728 17.75-5.455 23.738c-5.49 7.873-14.479 12.737-26.967 14.592-12.241 1.819-21.999-0.259-29.274-6.235-5.88-4.411-9.365-11.536-10.455-21.374zm19.821 10.868c4.532 2.713 10.637 3.499 18.314 2.358 7.647-1.136 13.365-3.695 17.155-7.676 3.825-3.954 5.421-8.78 4.79-14.478-0.631-5.697-3.216-9.933-7.755-12.708s-10.647-3.592-18.324-2.451c-7.678 1.141-13.41 3.717-17.197 7.729-3.786 4.012-5.364 8.867-4.732 14.564 0.631 5.698 3.214 9.918 7.749 12.662z"/>
        <path d="m777.78 504.32 2.412-14.49-24.534-3.709 2.358-14.165 68.231 10.315-4.947 29.72c-1.141 6.851-3.809 12.048-8.005 15.59-4.197 3.541-9.982 4.755-17.358 3.64-8.054-1.218-13.409-4.116-16.064-8.693-2.654-4.578-3.352-10.647-2.093-18.208zm13.101 8.814c1.327 2.099 3.765 3.417 7.314 3.954 3.549 0.536 6.236-0.023 8.062-1.676 1.82-1.624 3.01-4.117 3.57-7.481l2.212-13.286-20.09-3.037-2.211 13.286c-0.561 3.364-0.179 6.111 1.143 8.24z"/>
        <path d="m807.75 570.02-5.841 13.199-51.61-23.448-13.846 31.284-11.312-5.14 19.687-44.483z"/>
        <path d="m713.88 654.47 20.635-26.404-13.672-11.391-23.516 30.091-9.559-7.965 32.191-41.192 53.17 44.305-31.154 39.864-9.414-7.845 22.478-28.764-11.29-9.408-20.634 26.404z"/>
        <path d="m312.17 125.69c8.671-4.725 16.568-5.968 23.69-3.728 9.262 2.462 16.824 9.16 22.686 20.094 5.98 11.154 7.396 21.202 4.246 30.142-2.042 7.234-7.399 13.214-16.07 17.939-8.672 4.725-16.568 5.968-23.691 3.728-9.116-2.257-16.665-8.962-22.645-20.116-5.862-10.934-7.291-20.974-4.287-30.12 2.043-7.234 7.4-13.214 16.071-17.939zm-3.207 22.887c-0.943 5.318 0.424 11.406 4.101 18.263 3.662 6.831 7.971 11.297 12.928 13.401 4.944 2.145 9.927 1.85 14.949-0.886 5.021-2.737 8.031-6.779 9.029-12.127 0.997-5.348-0.342-11.451-4.019-18.309s-8.007-11.331-12.991-13.419c-4.985-2.088-9.988-1.764-15.009 0.972-5.022 2.737-8.018 6.771-8.988 12.105z"/>
      </g>
    </symbol>

    <symbol viewBox="0 0 19 19" id="theme-stars">
      <g stroke="#ffffff" fill="inherit" stroke-width=".5">
        <path d="m4.0508 4.7215c2.448-0.14242 2.9971-3.2696 2.9971-3.8145"/>
        <path d="m10.011 4.6684c-2.4451 0.18602-2.9384 3.3225-2.9287 3.8673"/>
        <path d="m10.045 4.7215c-2.448-0.14242-2.9971-3.2696-2.9971-3.8145"/>
        <path d="m4.017 4.7752c2.4502 0.09877 3.0549 3.2157 3.0646 3.7605"/>
      </g>
      <g stroke="#ffffff" fill="inherit" stroke-width=".35">
        <path d="m0.041016 11.424c1.6153-0.0939 1.9776-2.1574 1.9776-2.5169"/>
        <path d="m3.9737 11.389c-1.6134 0.1228-1.9388 2.1923-1.9324 2.5518"/>
        <path d="m3.9961 11.424c-1.6153-0.0939-1.9776-2.1574-1.9776-2.5169"/>
        <path d="m0.018622 11.459c1.6167 0.0652 2.0157 2.1218 2.0222 2.4813"/>
      </g>
      <g stroke="#ffffff" fill="inherit" stroke-width=".5">
        <path d="m12.051 7.7215c2.448-0.14242 2.9971-3.2696 2.9971-3.8145"/>
        <path d="m18.011 7.6684c-2.4451 0.18602-2.9384 3.3225-2.9287 3.8673"/>
        <path d="m18.045 7.7215c-2.448-0.14242-2.9971-3.2696-2.9971-3.8145"/>
        <path d="m12.017 7.7752c2.4502 0.09877 3.0549 3.2157 3.0646 3.7605"/>
        <path d="m7.0508 14.722c2.448-0.1424 2.9971-3.2696 2.9971-3.8145"/>
        <path d="m13.011 14.668c-2.4451 0.186-2.9384 3.3225-2.9287 3.8673"/>
        <path d="m13.045 14.722c-2.448-0.1424-2.9971-3.2696-2.9971-3.8145"/>
        <path d="m7.017 14.775c2.4502 0.0988 3.0549 3.2157 3.0646 3.7605"/>
      </g>
    </symbol>

    <symbol viewBox="0 0 17 16" id="theme-sun">
       <path fill="#303030" d="m0.33789 7.9925c0-0.18062 0.060263-0.33866 0.18832-0.4666 0.12806-0.12041 0.28625-0.18062 0.45198-0.18062h1.5367c0.17325 0 0.31638 0.06021 0.43691 0.18815 0.11299 0.12794 0.17325 0.27845 0.17325 0.45907s-0.05273 0.33114-0.16572 0.45908c-0.113 0.12794-0.26365 0.18815-0.43691 0.18815h-1.5367c-0.17326 0-0.32392-0.06021-0.45198-0.18815-0.12806-0.12794-0.19586-0.27846-0.19586-0.45908zm2.1544 5.2154c0-0.1731 0.06026-0.3236 0.17325-0.4591l1.1074-1.0762c0.11299-0.1204 0.26365-0.1731 0.44444-0.1731s0.33145 0.0602 0.45198 0.1731 0.18079 0.2559 0.18079 0.429c0 0.1806-0.06026 0.3462-0.18079 0.4817l-1.0697 1.0686c-0.30885 0.2409-0.6177 0.2409-0.92655 0-0.12053-0.1204-0.18079-0.2709-0.18079-0.444zm0-10.416c0-0.1731 0.06026-0.32361 0.17325-0.45908 0.15066-0.12794 0.30886-0.18815 0.48211-0.18815 0.16573 0 0.31639 0.06021 0.44445 0.18062l1.0772 1.1063c0.12053 0.11289 0.18079 0.2634 0.18079 0.44402s-0.06026 0.33114-0.18079 0.45156c-0.12053 0.12041-0.27119 0.18062-0.45198 0.18062s-0.33145-0.06021-0.44444-0.18062l-1.0998-1.0762c-0.12053-0.12042-0.18079-0.27846-0.18079-0.45908zm1.9209 5.2004c0-0.6999 0.17326-1.3546 0.52731-1.9567s0.82862-1.0837 1.4388-1.4374c0.61017-0.35372 1.258-0.52681 1.9586-0.52681 0.52731 0 1.032 0.10536 1.5217 0.31608 0.48215 0.21073 0.90395 0.48918 1.2504 0.8429 0.3541 0.35372 0.6328 0.76764 0.8362 1.2493 0.2034 0.48166 0.3088 0.99342 0.3088 1.5202 0 0.70743-0.1732 1.3622-0.5273 1.9642-0.354 0.60205-0.8286 1.0762-1.4312 1.43-0.60268 0.3537-1.258 0.5268-1.9661 0.5268s-1.3635-0.1731-1.9661-0.5268c-0.60264-0.3537-1.0772-0.8279-1.4313-1.43-0.33898-0.60959-0.51977-1.2643-0.51977-1.9718zm1.2806 0c0 0.73754 0.25612 1.3622 0.7759 1.8815 0.51224 0.51926 1.1375 0.78266 1.8757 0.78266s1.3635-0.2634 1.8833-0.78266c0.5197-0.51928 0.7834-1.1439 0.7834-1.8815 0-0.72248-0.2637-1.3396-0.7834-1.8589-0.51981-0.51176-1.145-0.76763-1.8833-0.76763-0.73069 0-1.3559 0.25587-1.8682 0.76763-0.52731 0.51929-0.78343 1.1364-0.78343 1.8589zm2.0038 5.8551c0-0.1806 0.06026-0.3311 0.18832-0.4516 0.12806-0.1204 0.27872-0.1806 0.45198-0.1806 0.18079 0 0.33898 0.0602 0.45951 0.1806 0.12053 0.1205 0.18079 0.271 0.18079 0.4516v1.4976c0 0.1807-0.06026 0.3387-0.18832 0.4667-0.12806 0.1279-0.27872 0.1881-0.45198 0.1881s-0.33145-0.0602-0.45198-0.1881c-0.12806-0.128-0.18832-0.286-0.18832-0.4667v-1.4976zm0-11.665v-1.5353c0-0.1731 0.06026-0.32361 0.18832-0.45155s0.27872-0.19567 0.45951-0.19567 0.32392 0.060207 0.45198 0.18815 0.18832 0.27846 0.18832 0.45155v1.5428c0 0.1731-0.06026 0.31609-0.18832 0.4365-0.12806 0.12042-0.27872 0.1731-0.45198 0.1731s-0.33145-0.06021-0.45197-0.1731c-0.12053-0.11289-0.19586-0.2634-0.19586-0.4365zm4.1582 9.9191c0-0.1731 0.0602-0.3161 0.1732-0.4214 0.113-0.1205 0.2562-0.1731 0.4219-0.1731 0.1808 0 0.3314 0.0602 0.452 0.1731l1.0998 1.0762c0.1205 0.1279 0.1808 0.2859 0.1808 0.459s-0.0603 0.3236-0.1808 0.4441c-0.3013 0.2333-0.6027 0.2333-0.904 0l-1.0697-1.0687c-0.113-0.1355-0.1732-0.2935-0.1732-0.4892zm0-8.2182c0-0.18815 0.0602-0.33867 0.1732-0.44403l1.0697-1.1063c0.1281-0.12041 0.2787-0.18062 0.4445-0.18062 0.1808 0 0.3314 0.06021 0.4519 0.18815 0.1281 0.12794 0.1884 0.27845 0.1884 0.45155 0 0.18814-0.0603 0.34619-0.1808 0.4666l-1.0998 1.0762c-0.1356 0.12042-0.2863 0.18062-0.452 0.18062-0.1733 0-0.3089-0.0602-0.4219-0.18062-0.113-0.12041-0.1732-0.27093-0.1732-0.45155zm1.7024 4.1091c0-0.18062 0.0603-0.33113 0.1808-0.4666 0.1205-0.12041 0.2637-0.18062 0.4294-0.18062h1.5217c0.1732 0 0.3239 0.06773 0.4519 0.19567 0.1281 0.12794 0.1959 0.27846 0.1959 0.45155 0 0.1731-0.0678 0.32362-0.1959 0.45156-0.128 0.12794-0.2787 0.18814-0.4519 0.18814h-1.5217c-0.1733 0-0.3239-0.0602-0.4369-0.18814s-0.1733-0.27094-0.1733-0.45156z"/>
    </symbol>

    <symbol viewBox="0 0 15 15" id="creator-writer">
      <path stroke="inherit" stroke-linecap="round" stroke-linejoin="round" d="M7.89358 13.831C6.42882 12.2183 4.44237 11.1738 2.28358 10.881C2.03786 10.8538 1.81092 10.7365 1.64656 10.5519C1.4822 10.3672 1.39207 10.1281 1.39357 9.88093V1.83093C1.39356 1.68649 1.42485 1.54376 1.48527 1.41256C1.54568 1.28137 1.63381 1.16482 1.74357 1.07093C1.85141 0.978755 1.97762 0.910574 2.11383 0.870919C2.25003 0.831264 2.39312 0.821043 2.53358 0.840934C4.59787 1.18354 6.4863 2.21231 7.89358 3.76093V13.831Z" />
      <path stroke="inherit" stroke-linecap="round" stroke-linejoin="round" d="M7.89355 13.831C9.35831 12.2183 11.3448 11.1738 13.5036 10.881C13.7493 10.8538 13.9763 10.7365 14.1406 10.5519C14.305 10.3672 14.3951 10.1281 14.3936 9.88093V1.83093C14.3936 1.68649 14.3623 1.54376 14.3019 1.41256C14.2415 1.28137 14.1534 1.16482 14.0436 1.07093C13.9358 0.978755 13.8096 0.910574 13.6734 0.870919C13.5371 0.831264 13.3941 0.821043 13.2536 0.840934C11.1893 1.18354 9.30083 2.21231 7.89355 3.76093V13.831Z" />
    </symbol>

    <symbol viewBox="0 0 15 15" id="creator-illustrator">
      <path stroke="inherit" stroke-linecap="round" stroke-linejoin="round" d="M7.02648 12.8873C5.49648 14.4273 2.89648 14.9373 1.39648 13.3973C3.39648 11.3273 1.39648 10.3273 2.89648 8.82734C3.15987 8.53395 3.48031 8.29734 3.83824 8.13199C4.19616 7.96663 4.58404 7.876 4.97818 7.86563C5.37232 7.85525 5.76444 7.92536 6.13056 8.07166C6.49669 8.21796 6.82914 8.43738 7.10759 8.71652C7.38604 8.99565 7.60465 9.32863 7.75006 9.69512C7.89547 10.0616 7.96461 10.4539 7.95328 10.848C7.94194 11.2421 7.85036 11.6297 7.68413 11.9873C7.5179 12.3448 7.28052 12.6646 6.98648 12.9273L7.02648 12.8873Z" />
      <path stroke="inherit" stroke-linecap="round" stroke-linejoin="round" d="M5.5918 7.91339L10.8967 1.99712C11.6508 1.14943 13.0119 1.10746 13.8167 1.90712C14.6168 2.71197 14.5747 4.07315 13.7267 4.82712L7.87007 10.0714" />
    </symbol>

    <symbol viewBox="0 0 15 15" id="creator-developer">
      <path stroke="inherit" stroke-linecap="round" stroke-linejoin="round" d="M4.18506 10.5189L0.685059 7.01892L4.18506 3.51892" />
      <path stroke="inherit" stroke-linecap="round" stroke-linejoin="round" d="M10.1851 10.5189L13.6851 7.01892L10.1851 3.51892" />
    </symbol>
  </defs>
</svg>